<?xml version="1.0" encoding="UTF-8" standalone="no"?>
<!-- Created with Inkscape (http://www.inkscape.org/) -->

<svg
   xmlns:dc="http://purl.org/dc/elements/1.1/"
   xmlns:cc="http://creativecommons.org/ns#"
   xmlns:rdf="http://www.w3.org/1999/02/22-rdf-syntax-ns#"
   xmlns:svg="http://www.w3.org/2000/svg"
   xmlns="http://www.w3.org/2000/svg"
   xmlns:sodipodi="http://sodipodi.sourceforge.net/DTD/sodipodi-0.dtd"
   xmlns:inkscape="http://www.inkscape.org/namespaces/inkscape"
   width="56.652901mm"
   height="19.968908mm"
   viewBox="0 0 200.73862 70.755974"
   id="svg6510"
   version="1.1"
   inkscape:version="0.91 r13725"
   sodipodi:docname="benchArtStatic.svg">
  <defs
     id="defs6512" />
  <sodipodi:namedview
     id="base"
     pagecolor="#ffffff"
     bordercolor="#666666"
     borderopacity="1.0"
     inkscape:pageopacity="0.0"
     inkscape:pageshadow="2"
     inkscape:zoom="1.7634324"
     inkscape:cx="155.91785"
     inkscape:cy="32.894491"
     inkscape:document-units="px"
     inkscape:current-layer="layer1"
     showgrid="false"
     fit-margin-top="0"
     fit-margin-left="0"
     fit-margin-right="0"
     fit-margin-bottom="0"
     inkscape:window-width="1366"
     inkscape:window-height="705"
     inkscape:window-x="-8"
     inkscape:window-y="-8"
     inkscape:window-maximized="1" />
  <metadata
     id="metadata6515">
    <rdf:RDF>
      <cc:Work
         rdf:about="">
        <dc:format>image/svg+xml</dc:format>
        <dc:type
           rdf:resource="http://purl.org/dc/dcmitype/StillImage" />
        <dc:title />
      </cc:Work>
    </rdf:RDF>
  </metadata>
  <g
     inkscape:label="Layer 1"
     inkscape:groupmode="layer"
     id="layer1"
     transform="translate(-3.9675807e-6,-981.60624)">
    <path
       style="fill:#1e824c;fill-opacity:1"
       d="m 101.75555,1051.4329 c -1.22272,-0.7378 -1.94252,-2.2972 -1.67387,-3.6264 0.10813,-0.5349 2.79884,-5.0527 5.97937,-10.0395 l 5.78278,-9.0668 0.002,-8.7353 0.002,-8.7352 -1.30132,0 c -0.97066,0 -1.43187,-0.1844 -1.81506,-0.7258 -0.67895,-0.9592 -0.64802,-1.4272 0.14629,-2.2132 0.62681,-0.6202 1.10004,-0.6531 9.40529,-0.6531 8.30526,0 8.77848,0.033 9.40529,0.6531 0.36301,0.3592 0.66002,0.8736 0.66002,1.143 0,0.8833 -1.2577,1.796 -2.47508,1.796 l -1.15503,0 0,8.7506 0,8.7507 5.93945,9.2913 c 6.192,9.6864 6.42254,10.1982 5.44031,12.0777 -1.02328,1.9581 -0.93764,1.9488 -17.88107,1.9474 -14.52789,-10e-4 -15.50468,-0.038 -16.4607,-0.6145 z m 31.21226,-3.1761 c 0,-0.1099 -2.50525,-4.1142 -5.56723,-8.8985 -3.06198,-4.7843 -5.73506,-9.0198 -5.94018,-9.4121 -0.25082,-0.4796 -0.37296,-3.6613 -0.37296,-9.7149 l 0,-9.0016 -2.80508,0 -2.80509,0 0,9.0016 c 0,6.1332 -0.12052,9.229 -0.3782,9.7149 -0.20801,0.3923 -2.88109,4.6313 -5.94018,9.4199 -3.05909,4.7886 -5.56198,8.793 -5.56198,8.8985 0,0.1056 6.60845,0.192 14.68545,0.192 8.077,0 14.68545,-0.09 14.68545,-0.1998 z m -26.27723,-1.5853 c -0.10654,-0.2748 1.00304,-2.3281 2.60279,-4.8166 3.27908,-5.1009 3.07123,-5.0245 7.20219,-2.6484 2.58752,1.4883 2.87004,1.5751 5.06861,1.5587 1.2806,-0.01 2.85659,-0.1344 3.50219,-0.2774 l 1.17383,-0.26 1.87877,2.9326 c 1.03331,1.6129 1.87876,3.1704 1.87876,3.4613 0,0.4771 -1.1266,0.5287 -11.56071,0.5287 -9.8543,0 -11.58813,-0.071 -11.74643,-0.4789 z m 9.12218,-40.4335 c -1.85566,-0.929 -1.58003,-3.5812 0.44123,-4.2457 2.24688,-0.7387 3.88296,2.5107 2.00153,3.9751 -1.02553,0.7982 -1.32309,0.8312 -2.44276,0.2706 z m 2.89041,-6.94665 c -2.29092,-1.23021 -2.11383,-4.76227 0.30002,-5.98378 2.5619,-1.29644 5.62468,1.34418 4.7167,4.06657 -0.71998,2.1587 -2.96751,3.01766 -5.01672,1.91721 z"
       id="path4147"
       inkscape:connector-curvature="0" />
    <rect
       style="opacity:1;fill:#2c3e50;fill-opacity:1;stroke:#22313f;stroke-width:2.13374114;stroke-linejoin:miter;stroke-miterlimit:3.9000001;stroke-dasharray:none;stroke-dashoffset:0;stroke-opacity:1"
       id="rect4707"
       width="16.416809"
       height="68.622231"
       x="146.15388"
       y="982.6731" />
    <rect
       style="opacity:1;fill:#2c3e50;fill-opacity:1;stroke:#22313f;stroke-width:2.13374114;stroke-linejoin:miter;stroke-miterlimit:3.9000001;stroke-dasharray:none;stroke-dashoffset:0;stroke-opacity:1"
       id="rect4707-4"
       width="16.416809"
       height="68.622231"
       x="164.70442"
       y="982.6731" />
    <rect
       style="opacity:1;fill:#2c3e50;fill-opacity:1;stroke:#22313f;stroke-width:2.13374114;stroke-linejoin:miter;stroke-miterlimit:3.9000001;stroke-dasharray:none;stroke-dashoffset:0;stroke-opacity:1"
       id="rect4707-2"
       width="16.416809"
       height="68.622231"
       x="183.25496"
       y="982.6731" />
    <path
       style="fill:#96281b;fill-opacity:1"
       d="m 51.74277,1051.4329 c -1.22272,-0.7378 -1.94252,-2.2972 -1.67387,-3.6264 0.10813,-0.5349 2.79884,-5.0527 5.97937,-10.0395 l 5.78278,-9.0668 0.002,-8.7353 0.002,-8.7352 -1.30132,0 c -0.97066,0 -1.43187,-0.1844 -1.81506,-0.7258 -0.67895,-0.9592 -0.64802,-1.4272 0.14629,-2.2132 0.62681,-0.6202 1.10004,-0.6531 9.40529,-0.6531 8.30526,0 8.77848,0.033 9.40529,0.6531 0.36301,0.3592 0.66002,0.8736 0.66002,1.143 0,0.8833 -1.2577,1.796 -2.47508,1.796 l -1.15503,0 0,8.7506 0,8.7507 5.93945,9.2913 c 6.192,9.6864 6.42254,10.1982 5.44031,12.0777 -1.02328,1.9581 -0.93764,1.9488 -17.88107,1.9474 -14.52789,-10e-4 -15.50468,-0.038 -16.4607,-0.6145 z m 31.21226,-3.1761 c 0,-0.1099 -2.50525,-4.1142 -5.56723,-8.8985 -3.06198,-4.7843 -5.73506,-9.0198 -5.94018,-9.4121 -0.25082,-0.4796 -0.37296,-3.6613 -0.37296,-9.7149 l 0,-9.0016 -2.80508,0 -2.80509,0 0,9.0016 c 0,6.1332 -0.12052,9.229 -0.3782,9.7149 -0.20801,0.3923 -2.88109,4.6313 -5.94018,9.4199 -3.05909,4.7886 -5.56198,8.793 -5.56198,8.8985 0,0.1056 6.60845,0.192 14.68545,0.192 8.077,0 14.68545,-0.09 14.68545,-0.1998 z m -26.27723,-1.5853 c -0.10654,-0.2748 1.00304,-2.3281 2.60279,-4.8166 3.27908,-5.1009 3.07123,-5.0245 7.20219,-2.6484 2.58752,1.4883 2.87004,1.5751 5.06861,1.5587 1.2806,-0.01 2.85659,-0.1344 3.50219,-0.2774 l 1.17383,-0.26 1.87877,2.9326 c 1.03331,1.6129 1.87876,3.1704 1.87876,3.4613 0,0.4771 -1.1266,0.5287 -11.56071,0.5287 -9.8543,0 -11.58813,-0.071 -11.74643,-0.4789 z m 9.12218,-40.4335 c -1.85566,-0.929 -1.58003,-3.5812 0.44123,-4.2457 2.24688,-0.7387 3.88296,2.5107 2.00153,3.9751 -1.02553,0.7982 -1.32309,0.8312 -2.44276,0.2706 z m 2.89041,-6.94665 c -2.29092,-1.23021 -2.11383,-4.76227 0.30002,-5.98378 2.5619,-1.29644 5.62468,1.34418 4.7167,4.06657 -0.71998,2.1587 -2.96751,3.01766 -5.01672,1.91721 z"
       id="path4147-7"
       inkscape:connector-curvature="0" />
    <path
       style="fill:#66cc99;fill-opacity:1"
       d="m 1.72992,1051.4329 c -1.22272,-0.7378 -1.94252,-2.2972 -1.67387,-3.6264 0.10813,-0.5349 2.79884,-5.0527 5.97937,-10.0395 l 5.78278,-9.0668 0.002,-8.7353 0.002,-8.7352 -1.30132,0 c -0.97066,0 -1.43187,-0.1844 -1.81506,-0.7258 -0.67895,-0.9592 -0.64802,-1.4272 0.14629,-2.2132 0.62681,-0.6202 1.10004,-0.6531 9.40529,-0.6531 8.30526,0 8.77848,0.033 9.40529,0.6531 0.36301,0.3592 0.66002,0.8736 0.66002,1.143 0,0.8833 -1.2577,1.796 -2.47508,1.796 l -1.15503,0 0,8.7506 0,8.7507 5.93945,9.2913 c 6.192,9.6864 6.42254,10.1982 5.44031,12.0777 -1.02328,1.9581 -0.93764,1.9488 -17.88107,1.9474 -14.52789,-10e-4 -15.50468,-0.038 -16.4607,-0.6145 z m 31.21226,-3.1761 c 0,-0.1099 -2.50525,-4.1142 -5.56723,-8.8985 -3.06198,-4.7843 -5.73506,-9.0198 -5.94018,-9.4121 -0.25082,-0.4796 -0.37296,-3.6613 -0.37296,-9.7149 l 0,-9.0016 -2.80508,0 -2.80509,0 0,9.0016 c 0,6.1332 -0.12052,9.229 -0.3782,9.7149 -0.20801,0.3923 -2.88109,4.6313 -5.94018,9.4199 -3.05909,4.7886 -5.56198,8.793 -5.56198,8.8985 0,0.1056 6.60845,0.192 14.68545,0.192 8.077,0 14.68545,-0.09 14.68545,-0.1998 z m -26.27723,-1.5853 c -0.10654,-0.2748 1.00304,-2.3281 2.60279,-4.8166 3.27908,-5.1009 3.07123,-5.0245 7.20219,-2.6484 2.58752,1.4883 2.87004,1.5751 5.06861,1.5587 1.2806,-0.01 2.85659,-0.1344 3.50219,-0.2774 l 1.17383,-0.26 1.87877,2.9326 c 1.03331,1.6129 1.87876,3.1704 1.87876,3.4613 0,0.4771 -1.1266,0.5287 -11.56071,0.5287 -9.8543,0 -11.58813,-0.071 -11.74643,-0.4789 z m 9.12218,-40.4335 c -1.85566,-0.929 -1.58003,-3.5812 0.44123,-4.2457 2.24688,-0.7387 3.88296,2.5107 2.00153,3.9751 -1.02553,0.7982 -1.32309,0.8312 -2.44276,0.2706 z m 2.89041,-6.94665 c -2.29092,-1.23021 -2.11383,-4.76227 0.30002,-5.98378 2.5619,-1.29644 5.62468,1.34418 4.7167,4.06657 -0.71998,2.1587 -2.96751,3.01766 -5.01672,1.91721 z"
       id="path4147-2"
       inkscape:connector-curvature="0" />
  </g>
</svg>
