<?xml version="1.0" encoding="UTF-8" standalone="no"?>
<!-- Created with Inkscape (http://www.inkscape.org/) -->

<svg
   xmlns:dc="http://purl.org/dc/elements/1.1/"
   xmlns:cc="http://creativecommons.org/ns#"
   xmlns:rdf="http://www.w3.org/1999/02/22-rdf-syntax-ns#"
   xmlns:svg="http://www.w3.org/2000/svg"
   xmlns="http://www.w3.org/2000/svg"
   xmlns:sodipodi="http://sodipodi.sourceforge.net/DTD/sodipodi-0.dtd"
   xmlns:inkscape="http://www.inkscape.org/namespaces/inkscape"
   width="97.84346mm"
   height="60.768959mm"
   viewBox="0 0 346.68943 215.32308"
   id="svg5917"
   version="1.1"
   inkscape:version="0.91 r13725"
   sodipodi:docname="inputBase.svg">
  <defs
     id="defs5919" />
  <sodipodi:namedview
     id="base"
     pagecolor="#ffffff"
     bordercolor="#666666"
     borderopacity="1.0"
     inkscape:pageopacity="0.0"
     inkscape:pageshadow="2"
     inkscape:zoom="1.2434559"
     inkscape:cx="27.597046"
     inkscape:cy="53.159684"
     inkscape:document-units="px"
     inkscape:current-layer="g6483"
     showgrid="false"
     fit-margin-top="0"
     fit-margin-left="0"
     fit-margin-right="0"
     fit-margin-bottom="0"
     inkscape:window-width="1366"
     inkscape:window-height="705"
     inkscape:window-x="-8"
     inkscape:window-y="-8"
     inkscape:window-maximized="1" />
  <metadata
     id="metadata5922">
    <rdf:RDF>
      <cc:Work
         rdf:about="">
        <dc:format>image/svg+xml</dc:format>
        <dc:type
           rdf:resource="http://purl.org/dc/dcmitype/StillImage" />
        <dc:title />
      </cc:Work>
    </rdf:RDF>
  </metadata>
  <g
     inkscape:label="Layer 1"
     inkscape:groupmode="layer"
     id="layer1"
     transform="translate(0,-837.03915)">
    <g
       id="g6483">
      <path
         inkscape:connector-curvature="0"
         id="path4622"
         d="m 178.81441,1052.2925 c -12.80948,-0.4897 -26.83743,-4.2114 -37.20207,-9.87 -5.05219,-2.7583 -11.76063,-7.7936 -15.02855,-11.2803 l -2.20999,-2.3579 -4.85875,1.1775 c -7.57826,1.8365 -15.18646,2.5876 -23.651545,2.3349 -3.98802,-0.1191 -8.68664,-0.4391 -10.44137,-0.7112 -14.832093,-2.2998 -26.693413,-7.0491 -36.874413,-14.7647 -5.75774,-4.3634 -8.83746,-7.6054 -12.47032,-13.1275 -6.84331,-10.40198 -8.4339,-22.08528 -4.54673,-33.39691 0.66183,-1.9259 1.11583,-3.54106 1.00891,-3.58924 -0.1069,-0.0481 -2.15217,-1.13837 -4.54498,-2.42265 -11.68744,-6.27293 -20.4490298,-15.15241 -24.8263098,-25.16035 -7.56085,-17.2867 -1.33849,-36.52367 15.9870798,-49.42541 11.62893,-8.65966 25.86696,-13.66674 42.62311,-14.98928 l 6.23028,-0.49174 1.24091,-2.74605 c 7.961983,-17.61946 28.251003,-30.40592 53.771728,-33.88775 6.91585,-0.94355 21.6925,-0.61409 27.94935,0.62315 2.39281,0.47315 5.00315,0.98173 5.80077,1.13017 4.08732,0.76067 15.73425,5.38247 20.39134,8.09182 l 5.01935,2.92009 2.52165,-1.23786 c 6.93338,-3.40353 16.84657,-6.41095 25.55296,-7.75216 6.58389,-1.01426 19.863,-1.01426 26.44691,0 14.2659,2.19766 25.15086,6.47991 35.23045,13.86003 6.30836,4.61888 10.26361,8.64491 13.67564,13.92037 3.41269,5.27648 6.30277,13.2749 6.31505,17.47719 l 0.005,1.4998 5.65284,1.15691 c 10.76174,2.20252 21.26544,6.7194 29.44176,12.66077 8.31625,6.04305 14.85588,14.25272 18.07424,22.68995 1.50716,3.95113 1.60239,4.70644 1.5898,12.60869 -0.0125,7.85047 -0.11866,8.68346 -1.60657,12.6087 -2.54027,6.70142 -8.20875,14.55477 -13.53021,18.74528 l -1.38812,1.09311 1.24217,2.2692 c 3.91574,7.15332 4.90328,11.13129 4.84116,19.50109 -0.0464,6.25397 -0.2378,7.64728 -1.53468,11.17348 -3.81493,10.3726 -9.73788,17.7405 -19.81992,24.6552 -13.20704,9.0579 -29.05871,13.6349 -47.08194,13.5944 -11.41832,-0.026 -20.77699,-1.5494 -29.74911,-4.8435 l -3.0708,-1.1275 -4.44964,3.08 c -14.47613,10.0201 -32.62233,15.0404 -51.72609,14.3102 z m 15.08197,-12.9447 c 11.85552,-2.0254 22.1704,-6.7708 29.58389,-13.6102 2.07377,-1.9132 4.47538,-3.7437 5.33689,-4.0678 2.95007,-1.1096 6.25207,-0.7534 10.5905,1.1425 10.36881,4.5311 16.96244,5.9306 28.1584,5.9769 9.38331,0.039 14.80264,-0.8405 22.91301,-3.7176 9.53146,-3.3813 17.14268,-8.4485 22.20051,-14.78 5.00487,-6.2652 7.0957,-12.03375 7.08925,-19.55916 -0.006,-6.66726 -1.46072,-10.84674 -6.2612,-17.98511 -2.61696,-3.89145 -1.52955,-7.02738 3.64345,-10.50724 4.66606,-3.13884 9.87958,-10.10588 12.03569,-16.0838 1.7354,-4.8115 1.70115,-13.32558 -0.073,-18.16982 -4.31914,-11.79252 -16.13043,-21.5477 -31.45852,-25.98224 -4.34007,-1.25561 -10.37499,-2.36724 -12.97686,-2.39033 -2.76175,-0.0245 -6.37104,-1.43389 -7.66853,-2.99446 -0.94984,-1.14243 -1.24193,-2.4293 -1.51374,-6.66919 -0.66229,-10.33075 -4.58147,-17.58925 -13.53845,-25.07383 -5.85927,-4.89608 -15.89407,-9.37344 -24.94037,-11.12795 -5.65789,-1.09734 -16.73671,-1.51063 -21.82013,-0.81401 -9.187,1.25897 -18.32803,4.34388 -25.64104,8.65334 -7.34183,4.32645 -9.76804,4.19929 -16.79454,-0.88027 -14.65797,-10.59643 -34.1924,-14.36038 -52.98538,-10.20936 -12.52056,2.76555 -23.761425,9.27206 -30.500045,17.65423 -2.21514,2.7554 -4.87469,8.23757 -5.60652,11.55682 -1.29339,5.86606 -2.81535,6.55363 -15.359673,6.9389 -10.53257,0.32348 -15.05768,1.06552 -22.62297,3.7098 -13.95209,4.87664 -24.07618,14.11723 -27.93999,25.50174 -1.47121,4.33482 -1.34392,12.80071 0.25962,17.26764 3.83517,10.68356 12.67856,18.92997 26.23019,24.45951 7.97168,3.25272 8.59455,4.61996 5.2744,11.57772 -3.56315,7.46702 -4.29553,12.91807 -2.65268,19.74384 3.12257,12.97373 15.40372,23.90043 32.387013,28.81513 6.9715,2.0175 12.68887,2.6529 21.548695,2.3951 8.5335,-0.2483 12.44783,-0.9427 20.54296,-3.6445 4.65825,-1.5548 5.38603,-1.6832 7.54503,-1.3317 3.09736,0.5042 5.14293,1.4973 6.33706,3.0765 4.99792,6.6098 9.1908,10.4859 14.89643,13.771 7.12026,4.0996 16.1705,6.9992 24.92827,7.9867 4.51118,0.5087 14.05802,0.1903 18.85247,-0.6288 z"
         style="fill:#22313f;fill-opacity:1" />
      <ellipse
         ry="7.0926185"
         rx="6.3045497"
         cy="1022.0357"
         cx="31.959087"
         id="path4626"
         style="opacity:1;fill:none;fill-opacity:1;stroke:#22313f;stroke-width:5;stroke-linejoin:miter;stroke-miterlimit:3.9000001;stroke-dasharray:none;stroke-dashoffset:0;stroke-opacity:1" />
      <circle
         r="4.7284122"
         cy="1041.7374"
         cx="46.144321"
         id="path4628"
         style="opacity:1;fill:none;fill-opacity:1;stroke:#22313f;stroke-width:5;stroke-linejoin:miter;stroke-miterlimit:3.9000001;stroke-dasharray:none;stroke-dashoffset:0;stroke-opacity:1" />
      <circle
         transform="matrix(0.8660254,0.50000001,-0.50000001,0.8660254,0,0)"
         r="46.393017"
         cy="728.68134"
         cx="618.66498"
         id="path4630"
         style="opacity:1;fill:none;fill-opacity:1;stroke:#90c695;stroke-width:7.2139678;stroke-linejoin:miter;stroke-miterlimit:3.9000001;stroke-dasharray:none;stroke-dashoffset:0;stroke-opacity:1" />
    </g>
  </g>
</svg>
