<?xml version="1.0" encoding="UTF-8" standalone="no"?>
<!-- Created with Inkscape (http://www.inkscape.org/) -->

<svg
   xmlns:dc="http://purl.org/dc/elements/1.1/"
   xmlns:cc="http://creativecommons.org/ns#"
   xmlns:rdf="http://www.w3.org/1999/02/22-rdf-syntax-ns#"
   xmlns:svg="http://www.w3.org/2000/svg"
   xmlns="http://www.w3.org/2000/svg"
   xmlns:sodipodi="http://sodipodi.sourceforge.net/DTD/sodipodi-0.dtd"
   xmlns:inkscape="http://www.inkscape.org/namespaces/inkscape"
   width="207.3792mm"
   height="135.35294mm"
   viewBox="0 0 734.80818 479.59701"
   id="svg5917"
   version="1.1"
   inkscape:version="0.91 r13725"
   sodipodi:docname="InputBaseStatic.svg">
  <defs
     id="defs5919" />
  <sodipodi:namedview
     id="base"
     pagecolor="#ffffff"
     bordercolor="#666666"
     borderopacity="1.0"
     inkscape:pageopacity="0.0"
     inkscape:pageshadow="2"
     inkscape:zoom="0.40904745"
     inkscape:cx="202.08703"
     inkscape:cy="95.369406"
     inkscape:document-units="px"
     inkscape:current-layer="g6483"
     showgrid="false"
     fit-margin-top="0"
     fit-margin-left="0"
     fit-margin-right="0"
     fit-margin-bottom="0"
     inkscape:window-width="1366"
     inkscape:window-height="705"
     inkscape:window-x="-8"
     inkscape:window-y="-8"
     inkscape:window-maximized="1" />
  <metadata
     id="metadata5922">
    <rdf:RDF>
      <cc:Work
         rdf:about="">
        <dc:format>image/svg+xml</dc:format>
        <dc:type
           rdf:resource="http://purl.org/dc/dcmitype/StillImage" />
        <dc:title></dc:title>
      </cc:Work>
    </rdf:RDF>
  </metadata>
  <g
     inkscape:label="Layer 1"
     inkscape:groupmode="layer"
     id="layer1"
     transform="translate(1.9868824,-574.76442)">
    <g
       id="g6483">
      <path
         style="color:#000000;font-style:normal;font-variant:normal;font-weight:normal;font-stretch:normal;font-size:medium;line-height:normal;font-family:sans-serif;text-indent:0;text-align:start;text-decoration:none;text-decoration-line:none;text-decoration-style:solid;text-decoration-color:#000000;letter-spacing:normal;word-spacing:normal;text-transform:none;direction:ltr;block-progression:tb;writing-mode:lr-tb;baseline-shift:baseline;text-anchor:start;white-space:normal;clip-rule:nonzero;display:inline;overflow:visible;visibility:visible;opacity:1;isolation:auto;mix-blend-mode:normal;color-interpolation:sRGB;color-interpolation-filters:linearRGB;solid-color:#000000;solid-opacity:1;fill-opacity:1;fill-rule:nonzero;stroke:#000000;stroke-width:4.90892744;stroke-linecap:butt;stroke-linejoin:miter;stroke-miterlimit:4;stroke-dasharray:none;stroke-dashoffset:0;stroke-opacity:1;color-rendering:auto;image-rendering:auto;shape-rendering:auto;text-rendering:auto;enable-background:accumulate"
         d="m 441.215,577.3038 c 11.23565,-0.26102 22.6398,0.0839 30.01477,1.13569 53.84524,7.67818 96.78695,35.87739 113.69939,74.99495 l 2.34951,5.43427 12.46515,1.02855 c 35.33844,2.91524 65.43638,13.96572 90.02381,33.10253 36.67753,28.54668 49.97034,71.36535 33.89783,109.7732 -9.30436,22.23422 -27.87563,41.87473 -52.58325,55.73515 -2.51248,1.40946 -4.84218,2.71286 -6.57292,3.67709 -0.86536,0.48214 -1.58072,0.88149 -2.09529,1.16573 -0.10796,0.0596 -0.16848,0.0921 -0.25831,0.14123 0.0749,0.36282 0.18444,0.8361 0.35263,1.46145 0.37577,1.39725 0.95486,3.32889 1.64424,5.42564 8.2615,25.12726 4.86363,51.1661 -9.66048,74.2408 -7.67283,12.19003 -14.2792,19.45522 -26.42285,29.07408 -21.52145,17.04675 -46.61579,27.54184 -77.88667,32.60954 -3.84114,0.6227 -13.64383,1.3105 -22.04775,1.5729 -17.8523,0.5569 -33.93203,-1.1024 -49.9344,-5.1556 l -9.60717,-2.4302 -4.21931,4.7058 c -7.00598,7.8128 -21.07974,18.8381 -31.81485,24.964 -21.9392,12.5191 -51.49745,20.711 -78.56324,21.7926 -40.31515,1.6108 -78.64033,-9.4648 -109.23407,-31.5981 l -8.89373,-6.433 -5.93324,2.28 c -18.95943,7.2755 -38.7501,10.6353 -62.81368,10.6929 -38.01696,0.09 -71.528555,-10.0117 -99.442403,-30.02122 -21.294832,-15.26479 -33.925221,-31.67776 -42.000163,-54.62515 -2.742033,-7.79249 -3.186828,-11.14722 -3.284401,-24.89124 -0.131015,-18.45444 2.028251,-27.54547 10.291949,-43.32387 l 2.18139,-4.16566 -2.218305,-1.8214 C 21.261186,858.47345 9.3338533,841.18602 3.9137538,826.24116 0.77846486,817.59622 0.49564542,815.42292 0.46944488,798.18716 0.45763219,789.51287 0.49814971,784.73639 0.95328087,780.96305 1.4084829,777.18964 2.2894498,774.47401 3.8768273,770.12457 10.721419,751.37008 24.573559,733.21781 42.186682,719.84078 59.493171,706.69662 81.663844,696.73636 104.40172,691.87249 l 11.03412,-2.35714 0.002,-2.39997 c 0.0272,-9.71988 6.14822,-27.17853 13.42871,-38.94389 7.23185,-11.68667 15.65962,-20.6457 28.96919,-30.83113 21.29551,-16.29683 44.35285,-25.77045 74.42598,-30.61257 14.03211,-2.25933 41.80683,-2.25933 55.83893,0 18.39304,2.96148 39.25706,9.57056 53.94867,17.10843 l 4.78926,2.45998 10.05414,-6.11566 c 9.98608,-6.07213 34.16398,-16.13734 43.14416,-17.88412 1.65553,-0.322 7.1445,-1.43933 12.16583,-2.4771 6.70466,-1.38572 17.77457,-2.25469 29.01017,-2.51569 z m 0.0288,2.22855 c -11.18904,0.26154 -22.19791,1.10942 -28.62885,2.43855 -5.0255,1.03864 -10.49688,2.15197 -12.19042,2.48138 -8.1816,1.59145 -32.90777,11.80904 -42.47581,17.62698 l -11.02183,6.7028 -5.79794,-2.97426 c -14.42016,-7.39861 -35.17855,-13.98678 -53.34181,-16.91126 -13.61225,-2.19175 -41.59108,-2.19175 -55.20339,0 -29.82635,4.80238 -52.47684,14.12297 -73.50339,30.21398 -13.17788,10.08464 -21.35388,18.78773 -28.44842,30.25257 -7.04864,11.39062 -13.06812,29.03904 -13.09251,37.76104 l -0.0118,4.1828 -12.70297,2.71712 c -22.448381,4.80196 -44.379067,14.66146 -61.403173,27.59117 -17.305049,13.14302 -30.911307,31.02127 -37.579973,49.29379 -1.5767461,4.32034 -2.3754848,6.77081 -2.8046753,10.32848 -0.429155,3.55767 -0.4806111,8.28018 -0.4674281,16.94554 0.026224,17.21622 0.1927358,18.6972 3.3048955,27.2783 5.2459209,14.46449 17.1196009,31.641 28.0752809,40.65816 l 3.61245,2.97428 -3.03429,5.7942 c -8.177654,15.61416 -10.163379,23.98005 -10.033604,42.25675 0.09722,13.70167 0.453997,16.4631 3.157296,24.14554 7.943112,22.57281 20.179512,38.49458 41.217004,53.57517 27.539694,19.74147 60.586297,29.72397 98.245067,29.63517 23.87948,-0.055 43.38351,-3.3789 62.09611,-10.5598 l 6.95837,-2.6698 9.79171,7.0798 c 30.18844,21.8401 68.05727,32.8024 107.95475,31.2084 l 0.0209,0 c 26.71315,-1.071 56.04582,-9.2121 77.62017,-21.5227 10.47797,-5.9792 24.57055,-17.0511 31.28588,-24.5398 l 5.05987,-5.63981 10.79631,2.73421 c 15.81712,4.0063 31.68187,5.6431 49.37266,5.0912 8.34092,-0.2602 18.26687,-0.9754 21.79348,-1.547 31.00591,-5.02484 55.71311,-15.37653 76.93951,-32.1896 12.0319,-9.53041 18.35822,-16.49038 25.939,-28.53405 14.20949,-22.57485 17.48666,-47.80666 9.42677,-72.32078 -0.70005,-2.1292 -1.28913,-4.08368 -1.68116,-5.54139 -0.19601,-0.72883 -0.34132,-1.33204 -0.43053,-1.79567 -0.0447,-0.23184 -0.0771,-0.41891 -0.0901,-0.62572 -0.006,-0.10324 -0.0144,-0.20559 0.0124,-0.38143 0.0268,-0.17574 0.0574,-0.61482 0.63556,-0.88714 -0.0775,0.0365 0.0677,-0.0363 0.21322,-0.11546 0.14553,-0.0792 0.35154,-0.19334 0.60686,-0.33429 0.51062,-0.28206 1.22301,-0.68001 2.08709,-1.16142 1.72815,-0.96282 4.05782,-2.26421 6.56881,-3.67282 24.3643,-13.66872 42.57641,-32.99522 51.65131,-54.68111 15.67389,-37.45533 2.84351,-79.06028 -33.22537,-107.13323 -24.23997,-18.86637 -53.92422,-29.78948 -88.94131,-32.67824 l -13.69527,-1.12714 -2.86206,-6.61709 c -16.51824,-38.20588 -58.76482,-66.12016 -112.07561,-73.7221 -7.14414,-1.01875 -18.51003,-1.34582 -29.69908,-1.08427 z"
         id="path4622"
         inkscape:connector-curvature="0"
         sodipodi:nodetypes="cssccssssccsssscccccsccccsssscccscssscccssssccccscccsscccsssscccssssscccsssscccccccccccssssccccccscsscccscc" />
    </g>
  </g>
</svg>
