<?xml version="1.0" encoding="UTF-8" standalone="no"?>
<!-- Created with Inkscape (http://www.inkscape.org/) -->

<svg
   xmlns:dc="http://purl.org/dc/elements/1.1/"
   xmlns:cc="http://creativecommons.org/ns#"
   xmlns:rdf="http://www.w3.org/1999/02/22-rdf-syntax-ns#"
   xmlns:svg="http://www.w3.org/2000/svg"
   xmlns="http://www.w3.org/2000/svg"
   xmlns:sodipodi="http://sodipodi.sourceforge.net/DTD/sodipodi-0.dtd"
   xmlns:inkscape="http://www.inkscape.org/namespaces/inkscape"
   width="72.935394mm"
   height="61.05394mm"
   viewBox="0 0 258.4325 216.33286"
   id="svg4246"
   version="1.1"
   inkscape:version="0.91 r13725"
   sodipodi:docname="Scientist.svg">
  <defs
     id="defs4248" />
  <sodipodi:namedview
     id="base"
     pagecolor="#ffffff"
     bordercolor="#666666"
     borderopacity="1.0"
     inkscape:pageopacity="0.0"
     inkscape:pageshadow="2"
     inkscape:zoom="1.4986057"
     inkscape:cx="162.96765"
     inkscape:cy="149.79938"
     inkscape:document-units="px"
     inkscape:current-layer="layer1"
     showgrid="false"
     fit-margin-top="0"
     fit-margin-left="0"
     fit-margin-right="0"
     fit-margin-bottom="0"
     inkscape:window-width="1366"
     inkscape:window-height="705"
     inkscape:window-x="-8"
     inkscape:window-y="-8"
     inkscape:window-maximized="1" />
  <metadata
     id="metadata4251">
    <rdf:RDF>
      <cc:Work
         rdf:about="">
        <dc:format>image/svg+xml</dc:format>
        <dc:type
           rdf:resource="http://purl.org/dc/dcmitype/StillImage" />
        <dc:title></dc:title>
      </cc:Work>
    </rdf:RDF>
  </metadata>
  <g
     inkscape:label="Layer 1"
     inkscape:groupmode="layer"
     id="layer1"
     transform="translate(-207.92661,-485.57087)">
    <path
       style="opacity:1;fill:#e6e6e6;fill-opacity:1;stroke:none;stroke-width:2;stroke-linejoin:miter;stroke-miterlimit:3.9000001;stroke-dasharray:none;stroke-dashoffset:0;stroke-opacity:1"
       id="path4505"
       sodipodi:type="arc"
       sodipodi:cx="392.28067"
       sodipodi:cy="701.90375"
       sodipodi:rx="74.078461"
       sodipodi:ry="130.81941"
       sodipodi:start="3.1415927"
       sodipodi:end="0"
       d="m 318.20221,701.90374 a 74.078461,130.81941 0 0 1 74.07846,-130.8194 74.078461,130.81941 0 0 1 74.07846,130.81941 l -74.07846,0 z" />
    <path
       style="fill:#336e7b;fill-opacity:1"
       d="m 211.1361,656.44023 c 1.76524,-1.99112 3.36913,-3.62022 3.56422,-3.62022 0.19508,0 0.93506,0.51856 1.64439,1.15235 l 1.28969,1.15233 -1.06224,1.34715 c -0.58424,0.74093 -2.10657,2.47303 -3.38295,3.8491 l -2.32071,2.50196 -1.47096,-1.38122 -1.47095,-1.38124 3.20951,-3.62021 z m 9.28994,-14.00159 c 3.59711,-4.06009 6.69744,-7.43289 6.8896,-7.49512 0.37605,-0.12176 6.34817,5.04539 6.34817,5.49251 0,0.14795 -2.95073,3.61901 -6.55718,7.71347 l -6.55718,7.44445 -1.44117,-1.18374 c -0.79265,-0.65105 -2.29196,-1.95005 -3.33181,-2.88665 l -1.89063,-1.70293 6.5402,-7.38199 z m 27.60252,-34.98982 c 11.72113,-13.18659 21.47238,-24.02606 21.66945,-24.08773 0.27388,-0.0857 10.35625,8.54311 10.35625,8.8632 0,0.19832 -43.08316,48.59819 -43.2597,48.59819 -0.34517,0 -10.13137,-8.84593 -10.10322,-9.13249 0.0144,-0.14606 9.6161,-11.05459 21.33722,-24.24117 z m 21.42703,-28.95798 c 0.76565,-0.90826 1.30618,-1.23809 1.66676,-1.01702 0.70763,0.43383 24.22701,21.26907 24.49066,21.69567 0.11266,0.18229 -0.28982,0.92397 -0.8944,1.64817 l -1.09925,1.31671 -12.3814,-10.90444 c -6.80977,-5.99744 -12.50156,-11.01479 -12.64844,-11.14967 -0.14688,-0.13488 0.24285,-0.85012 0.86607,-1.58942 z m 14.4326,-3.75469 c 5.97607,-6.7013 5.96045,-6.69166 7.7112,-4.75709 0.72886,0.80537 0.66463,0.89897 -4.96502,7.23556 -3.13689,3.53079 -5.82203,6.41963 -5.96697,6.41963 -0.29267,0 -2.41758,-2.13985 -2.40449,-2.42139 0.004,-0.0979 2.53593,-3.01246 5.62528,-6.47671 z m 4.81855,-10.19797 c 0.2781,-0.27495 0.66835,-0.4999 0.86724,-0.4999 0.19888,0 1.93508,1.41239 3.85822,3.13865 3.13593,2.81488 3.44231,3.21294 2.97001,3.85885 -0.48766,0.66691 -0.72398,0.54565 -3.19408,-1.63896 -1.46711,-1.29754 -3.19387,-2.80907 -3.83725,-3.35895 -0.94075,-0.80405 -1.07078,-1.09767 -0.66414,-1.49969 z"
       id="path4520"
       inkscape:connector-curvature="0" />
    <path
       style="fill:none;fill-rule:evenodd;stroke:#e6e6e6;stroke-width:9.33560944;stroke-linecap:butt;stroke-linejoin:miter;stroke-miterlimit:4;stroke-dasharray:none;stroke-opacity:1"
       d="m 265.9222,597.02153 c 44.58425,79.17349 78.02242,21.35016 78.02242,21.35016"
       id="path4522"
       inkscape:connector-curvature="0" />
    <path
       sodipodi:type="star"
       style="opacity:1;fill:#336e7b;fill-opacity:1;stroke:#000000;stroke-width:5.5457201;stroke-linejoin:miter;stroke-miterlimit:4;stroke-dasharray:none;stroke-dashoffset:0;stroke-opacity:1"
       id="path4539"
       sodipodi:sides="3"
       sodipodi:cx="488.6026"
       sodipodi:cy="625.22894"
       sodipodi:r1="81.974304"
       sodipodi:r2="40.987148"
       sodipodi:arg1="1.5515679"
       sodipodi:arg2="2.5987655"
       inkscape:flatsided="true"
       inkscape:rounded="0"
       inkscape:randomized="0"
       d="M 490.17874,707.18809 416.83582,585.61434 558.79324,582.88439 Z"
       inkscape:transform-center-x="0.19624018"
       inkscape:transform-center-y="7.1080738"
       transform="matrix(0.2490122,0,0,0.35886101,269.42446,363.45223)" />
    <path
       style="opacity:1;fill:#e6e6e6;fill-opacity:1;stroke:#000000;stroke-width:2;stroke-linejoin:miter;stroke-miterlimit:3.9000001;stroke-dasharray:none;stroke-dashoffset:0;stroke-opacity:1"
       id="path4848"
       d="m 403.69896,609.85606 4.70057,7.7171 -26.33768,38.27382 9.59128,-38.73599 14.64985,-37.89942 10.26863,-0.10284 -3.32283,19.67327 z"
       inkscape:connector-curvature="0"
       sodipodi:nodetypes="cccccccc" />
    <path
       style="opacity:1;fill:#e6e6e6;fill-opacity:1;stroke:#000000;stroke-width:2;stroke-linejoin:miter;stroke-miterlimit:3.9000001;stroke-dasharray:none;stroke-dashoffset:0;stroke-opacity:1"
       id="path4848-6"
       d="m 378.92814,609.67321 -4.70057,7.7171 12.79405,18.26239 4.70193,-18.97442 -15.39943,-37.64956 -10.26864,-0.10284 3.32283,19.67327 z"
       inkscape:connector-curvature="0"
       sodipodi:nodetypes="cccccccc" />
    <ellipse
       style="opacity:1;fill:#f28d5f;fill-opacity:1;stroke:none;stroke-width:2;stroke-linejoin:miter;stroke-miterlimit:3.9000001;stroke-dasharray:none;stroke-dashoffset:0;stroke-opacity:1"
       id="path4507"
       cx="480.84598"
       cy="465.6712"
       rx="43.343781"
       ry="48.86026"
       transform="matrix(0.98480775,0.17364817,-0.17364817,0.98480775,0,0)" />
    <ellipse
       style="opacity:1;fill:#f28d5f;fill-opacity:1;stroke:none;stroke-width:12.4289999;stroke-linejoin:miter;stroke-miterlimit:4;stroke-dasharray:none;stroke-dashoffset:0;stroke-opacity:1"
       id="path4545"
       cx="-10.779163"
       cy="658.24725"
       rx="12.609099"
       ry="15.761374"
       transform="matrix(0.90630779,-0.42261826,0.42261826,0.90630779,0,0)" />
    <rect
       style="opacity:1;fill:#e6e6e6;fill-opacity:1;stroke:#000000;stroke-width:1.12628663;stroke-linejoin:miter;stroke-miterlimit:4;stroke-dasharray:none;stroke-dashoffset:0;stroke-opacity:1"
       id="rect5154"
       width="31.077244"
       height="39.217297"
       x="407.7359"
       y="628.62665" />
    <rect
       style="opacity:1;fill:#800000;fill-opacity:1;stroke:none;stroke-width:1;stroke-linejoin:miter;stroke-miterlimit:4;stroke-dasharray:none;stroke-dashoffset:0;stroke-opacity:1"
       id="rect5156"
       width="5.0518775"
       height="10.557132"
       x="411.65564"
       y="617.50635" />
    <rect
       style="opacity:1;fill:#000000;fill-opacity:1;stroke:none;stroke-width:1;stroke-linejoin:miter;stroke-miterlimit:4;stroke-dasharray:none;stroke-dashoffset:0;stroke-opacity:1"
       id="rect5156-7"
       width="5.0518775"
       height="10.557132"
       x="420.7486"
       y="617.50635" />
    <rect
       style="opacity:1;fill:#000080;fill-opacity:1;stroke:none;stroke-width:1;stroke-linejoin:miter;stroke-miterlimit:4;stroke-dasharray:none;stroke-dashoffset:0;stroke-opacity:1"
       id="rect5156-75"
       width="5.0518775"
       height="10.557132"
       x="429.84155"
       y="617.50635" />
    <rect
       style="opacity:1;fill:#000000;fill-opacity:1;stroke:none;stroke-width:1;stroke-linejoin:miter;stroke-miterlimit:4;stroke-dasharray:none;stroke-dashoffset:0;stroke-opacity:1"
       id="rect5184"
       width="1.5117104"
       height="44.926186"
       x="381.12524"
       y="656.01733" />
    <rect
       style="opacity:1;fill:#000000;fill-opacity:1;stroke:none;stroke-width:1;stroke-linejoin:miter;stroke-miterlimit:4;stroke-dasharray:none;stroke-dashoffset:0;stroke-opacity:1"
       id="rect5184-9"
       width="1.5"
       height="40"
       x="526.91388"
       y="505.89871"
       transform="matrix(0.97100695,0.23905124,-0.23905124,0.97100695,0,0)" />
    <circle
       style="opacity:0.97000002;fill:#ffffff;fill-opacity:1;stroke:#000000;stroke-width:0.97959286;stroke-linejoin:miter;stroke-miterlimit:4;stroke-dasharray:none;stroke-dashoffset:0;stroke-opacity:1"
       id="path5201"
       cx="391.46661"
       cy="664.2644"
       r="3.0102036" />
    <circle
       style="opacity:0.97000002;fill:#ffffff;fill-opacity:1;stroke:#000000;stroke-width:0.97959286;stroke-linejoin:miter;stroke-miterlimit:4;stroke-dasharray:none;stroke-dashoffset:0;stroke-opacity:1"
       id="path5201-8"
       cx="391.46661"
       cy="692.04242"
       r="3.0102036" />
    <path
       style="fill:#1a1a1a"
       d="m 333.92295,602.67052 c 0.3913,-0.0433 1.37058,-0.28483 2.17615,-0.53651 0.80557,-0.2517 2.28509,-0.69005 3.28781,-0.97414 1.00272,-0.28408 2.75177,-0.91241 3.8868,-1.39628 1.13502,-0.48388 2.4003,-0.89297 2.81177,-0.90909 0.41144,-0.0161 1.40167,-0.20081 2.20049,-0.41039 1.37227,-0.36004 1.59011,-0.3601 3.9489,-9.3e-4 l 2.49647,0.38016 3.84488,-1.01933 c 2.11469,-0.56064 3.97349,-1.00142 4.13069,-0.97953 0.15719,0.0219 0.81967,-0.22626 1.47217,-0.55145 0.77588,-0.38667 1.33376,-0.53712 1.61235,-0.43483 0.27561,0.10118 0.53013,0.0357 0.72098,-0.18569 0.16222,-0.18815 0.54741,-0.359 0.85597,-0.37964 1.09043,-0.0729 3.18317,-3.7578 4.19118,-7.37975 0.64737,-2.32609 1.35988,-8.79848 1.13349,-10.2967 -0.16958,-1.12236 -1.13285,-4.66327 -1.75173,-6.43925 -0.15598,-0.44765 -0.68513,-1.48702 -1.17585,-2.30971 -1.06377,-1.78337 -1.82405,-3.38904 -1.7742,-3.74701 0.064,-0.45963 -2.39967,-5.96014 -2.74319,-6.12457 -0.50247,-0.2405 -1.18334,-1.9959 -1.31587,-3.39247 -0.097,-1.023 -0.28295,-1.44923 -1.05197,-2.41204 -0.81289,-1.01773 -0.94412,-1.34145 -1.01137,-2.49504 -0.0425,-0.72907 -0.37582,-2.20172 -0.74072,-3.27256 -0.8962,-2.63004 -1.04717,-3.70305 -0.94526,-6.71877 0.13161,-3.89458 1.33516,-8.13596 2.71348,-9.56237 0.27206,-0.28155 1.17062,-1.18098 1.9968,-1.99873 2.12593,-2.10424 3.93898,-4.44061 4.91362,-6.33187 0.68688,-1.33288 0.95333,-2.22005 1.47901,-4.92452 l 0.64122,-3.29877 1.62649,-2.87114 c 2.94634,-5.20102 5.27328,-7.37041 8.92851,-8.32392 2.09681,-0.54699 4.71022,-0.40498 10.60298,0.57613 3.43085,0.57126 4.46541,0.6806 5.52253,0.58381 2.37642,-0.21754 3.1541,-0.12773 4.23015,0.48853 2.82235,1.61624 3.89805,5.66853 3.14327,11.84119 -0.27543,2.25263 -0.26351,2.40191 0.28195,3.52412 0.80015,1.64625 3.14677,4.23918 4.65584,5.14452 l 1.23906,0.74336 -0.17238,1.23784 c -0.20672,1.48447 0.0429,2.29048 1.02778,3.31816 0.40581,0.42347 0.7156,0.92972 0.6884,1.12501 -0.0663,0.47612 0.2662,1.15579 0.79915,1.63353 0.39564,0.35464 0.40743,0.55384 0.12579,2.12399 -0.19597,1.09259 -0.24925,2.32491 -0.1442,3.33585 0.16787,1.61533 -0.007,2.82379 -1.10796,7.64585 -0.21509,0.94206 -0.37407,2.12788 -0.35353,2.63512 l 0.0374,0.92228 0.90713,0.006 c 0.84739,0.006 0.97104,0.0751 1.87784,1.05476 1.92225,2.07693 2.01987,2.79664 0.59064,4.35448 -0.99318,1.08255 -1.19936,1.97814 -0.78717,3.41918 1.00397,3.50992 -2.21399,14.55259 -5.39467,18.51225 -1.93624,2.41044 -6.1862,4.93226 -9.12239,5.41302 -1.39153,0.22784 -2.21771,1.15771 -2.31064,2.60057 -0.0555,0.86008 0.0905,1.37639 0.72304,2.55837 1.15358,2.15566 1.25437,2.92184 0.80698,6.1345 -0.21234,1.52481 -0.32696,3.07219 -0.25474,3.43862 0.0722,0.36642 0.51756,1.12981 0.9896,1.69642 0.47204,0.56662 1.56386,1.93782 2.42626,3.04713 0.8624,1.10932 1.93412,2.28966 2.38159,2.62297 0.7605,0.56649 0.92308,0.61126 2.49192,0.6862 0.9231,0.044 2.81332,0.22959 4.20052,0.41221 l 2.52219,0.33205 0.2741,-1.02664 c 0.15073,-0.56466 0.51185,-1.32024 0.80243,-1.67908 0.43927,-0.54245 0.64661,-0.63549 1.22994,-0.55189 0.38582,0.0557 0.94192,0.2611 1.23564,0.4573 1.46313,0.97736 1.79927,1.09381 3.11846,1.08038 0.70732,-0.007 1.48041,-0.11965 1.71797,-0.2499 0.61729,-0.33843 1.29312,-1.64114 1.8546,-3.57482 0.82007,-2.82426 1.26111,-3.48527 2.48718,-3.7276 0.97767,-0.19324 1.63759,0.0421 3.51938,1.25504 0.75686,0.48786 1.60323,0.91865 1.88084,0.95731 0.76225,0.10615 1.76188,-0.2285 3.48474,-1.16657 2.27304,-1.23765 1.92929,-1.29482 6.47553,1.07693 1.14511,0.5974 1.62627,0.72653 3.90419,1.04777 3.08288,0.43437 3.37669,0.5896 4.54682,2.39559 0.44898,0.69295 0.95322,1.27898 1.12052,1.30228 0.5567,0.0775 1.37344,-0.66639 1.93365,-1.76122 0.30456,-0.5952 0.68813,-1.21698 0.85238,-1.38173 0.3933,-0.39447 1.15865,-0.2707 2.01978,0.3267 0.97068,0.67328 1.44913,0.69898 1.6887,0.0907 0.10933,-0.2776 0.57616,-1.27982 1.03744,-2.22717 1.2737,-2.61589 1.43455,-3.512 0.93042,-5.18381 -0.31229,-1.03563 -0.39696,-2.01148 -0.32309,-3.72345 0.0551,-1.276 0.0362,-2.69928 -0.0419,-3.16285 -0.19682,-1.16838 -1.32639,-2.24295 -3.05703,-2.90813 -2.47572,-0.95157 -4.02451,-2.98206 -4.05057,-5.31036 -0.0152,-1.35778 0.40393,-1.98968 2.14369,-3.23196 1.12079,-0.80031 1.36932,-1.10172 1.72616,-2.09348 0.22928,-0.63721 0.46866,-1.53054 0.53197,-1.98518 0.15304,-1.09894 0.91902,-2.01087 2.82237,-3.36012 0.86654,-0.61426 1.70461,-1.31899 1.86237,-1.56605 0.45631,-0.71458 -0.12593,-2.93784 -1.08865,-4.15681 -0.51865,-0.65673 -0.76516,-1.18544 -0.71631,-1.53629 0.041,-0.29422 -0.0602,-0.6582 -0.2248,-0.80884 -0.16462,-0.15064 -0.40729,-0.73962 -0.53928,-1.30883 -0.20503,-0.8842 -0.57608,-1.39191 -2.5475,-3.48591 -2.05646,-2.18431 -2.33235,-2.57028 -2.5358,-3.54758 -0.27729,-1.33205 0.2995,-8.84582 0.69797,-9.09226 0.13822,-0.0855 0.79508,-0.12549 1.45971,-0.0889 1.44016,0.0793 1.74159,-0.29071 0.97365,-1.1953 -0.27178,-0.32013 -0.53128,-0.84861 -0.57667,-1.17437 -0.24195,-1.73735 -1.54844,-3.75035 -3.82528,-5.89389 -0.81211,-0.76458 -1.5808,-1.60896 -1.70818,-1.87641 -0.12739,-0.26744 -0.37191,-0.50579 -0.54337,-0.52967 -0.38811,-0.0541 -0.53184,-0.49848 -0.42028,-1.29959 0.0508,-0.3648 -0.14156,-0.9998 -0.47104,-1.5549 -0.66066,-1.11304 -0.84134,-3.09441 -0.37956,-4.16233 0.16631,-0.38459 0.3622,-0.73627 0.43533,-0.78149 l -2.55237,-7.53473 c -0.91953,-0.9078 -1.03778,-1.15601 -1.43862,-3.01986 -0.79113,-3.67865 -0.89941,-4.02106 -1.45116,-4.58926 -0.30064,-0.30962 -0.92969,-0.95427 -1.39791,-1.43257 -0.67628,-0.69083 -0.83283,-1.00235 -0.76141,-1.51516 0.0643,-0.46188 -0.0865,-0.84752 -0.53027,-1.35559 -0.34109,-0.39054 -1.18033,-1.83353 -1.86497,-3.20666 -1.39721,-2.80224 -2.00179,-3.68223 -3.18794,-4.64015 -0.68265,-0.55129 -1.0505,-0.69407 -2.21519,-0.85981 -1.71089,-0.2433 -2.5559,-0.68496 -5.22924,-2.73209 -1.11101,-0.85077 -2.38021,-1.65538 -2.82045,-1.78805 -0.44023,-0.13269 -1.05081,-0.46433 -1.35681,-0.73705 -0.306,-0.27271 -1.77437,-1.18089 -3.26302,-2.01817 -4.01687,-2.25924 -3.65887,-2.22802 -12.68917,-1.10698 -9.21994,1.14458 -11.85349,1.25574 -16.8357,0.71062 -3.54467,-0.38783 -3.81006,-0.44325 -5.55897,-1.16041 -2.27023,-0.93096 -4.85367,-1.48224 -7.44631,-1.58894 -2.61081,-0.10747 -4.28745,0.19084 -7.02105,1.24919 -1.82693,0.70731 -2.37602,1.02463 -2.87277,1.66014 -1.08434,1.38724 -2.38102,3.4228 -2.62645,4.1231 -0.29159,0.83197 -2.02343,2.49502 -3.37614,3.24202 -0.54973,0.30357 -1.52326,0.69096 -2.16342,0.86084 -1.58108,0.41958 -4.13468,1.57726 -4.82775,2.18865 -0.73019,0.64414 -2.42799,3.10313 -3.03161,4.39079 -0.45894,0.97908 -0.89406,2.46718 -2.03977,6.97605 -0.34515,1.35835 -1.09851,3.39271 -1.90898,5.15505 l -1.33883,2.91121 -0.31415,3.37125 c -0.29368,3.15166 -0.35317,3.42496 -0.91342,4.19586 -0.71767,0.98751 -1.78392,1.88558 -3.71242,3.12683 -1.26545,0.81448 -1.65224,0.94679 -3.32999,1.13906 -2.47469,0.28358 -2.64194,0.34623 -4.49547,1.68394 -0.86573,0.62482 -2.17337,1.53174 -2.90585,2.01538 -1.89198,1.24921 -2.04099,1.42217 -2.54424,2.95333 -0.58797,1.78895 -0.64427,2.27385 -0.4295,3.69906 0.0984,0.65258 0.20966,1.81638 0.24732,2.5862 0.0703,1.43639 0.40049,2.25003 1.91392,4.71641 1.0306,1.67952 1.16968,2.12518 1.89589,6.07545 0.95524,5.19604 1.36453,6.44637 2.5267,7.71878 1.1203,1.22653 1.37319,1.85137 1.21077,2.99159 -0.14375,1.01049 -0.73716,2.1208 -2.17093,4.06322 -1.69606,2.29779 -2.22315,3.43753 -2.27822,4.92624 -0.12331,3.33382 3.14515,7.85745 6.54451,9.05775 0.7684,0.27133 1.0261,0.4975 1.40714,1.23499 0.25655,0.49656 0.57185,1.31294 0.70066,1.81418 0.12881,0.50125 0.4133,1.08929 0.63222,1.30675 0.59568,0.5918 0.31963,2.11547 -0.58163,3.21021 -0.38901,0.47253 -1.69485,1.53911 -2.90187,2.3702 -1.20701,0.83108 -2.28481,1.70661 -2.39509,1.94563 -0.1492,0.32336 -0.65656,0.54015 -1.98253,0.84709 -1.6437,0.3805 -1.78826,0.45731 -1.86241,0.98976 -0.0626,0.44929 0.0628,0.66376 0.56575,0.96757 0.94071,0.56828 0.75013,1.47705 -0.69515,3.315 -0.62422,0.79383 -1.15046,1.55468 -1.16942,1.69078 -0.0395,0.28382 0.86866,0.42869 1.94158,0.30966 z"
       id="path4892"
       inkscape:connector-curvature="0"
       sodipodi:nodetypes="ccsscsscscscccsccscccsssssssscsscccscscscccsssccccsssscsscssscsccscsccsscssscscsccsssccssscssccccsssccccsccsscccscsccsscsccssssssscssscsscsssssssccssccssccscsscsccsccc" />
    <ellipse
       style="opacity:1;fill:#000000;fill-opacity:1;stroke:none;stroke-width:2;stroke-linejoin:miter;stroke-miterlimit:3.9000001;stroke-dasharray:none;stroke-dashoffset:0;stroke-opacity:1"
       id="path4894-0"
       cx="538.85883"
       cy="398.70886"
       rx="4.4321465"
       ry="4.0292239"
       transform="matrix(0.95726731,0.2892046,-0.28920463,0.9572673,0,0)" />
    <ellipse
       style="opacity:1;fill:#000000;fill-opacity:1;stroke:none;stroke-width:2;stroke-linejoin:miter;stroke-miterlimit:3.9000001;stroke-dasharray:none;stroke-dashoffset:0;stroke-opacity:1"
       id="path4894-0-3"
       cx="518.10303"
       cy="402.45407"
       rx="4.4321465"
       ry="4.0292239"
       transform="matrix(0.95726731,0.2892046,-0.28920464,0.9572673,0,0)" />
    <path
       style="fill:#ec644b;fill-opacity:1"
       d="m 386.51576,571.50046 c -0.0749,-0.0188 -0.28338,-0.0635 -0.46327,-0.0991 -0.1799,-0.0357 -0.38507,-0.0809 -0.45594,-0.10058 -0.0709,-0.0196 -0.30029,-0.0679 -0.50979,-0.10732 -2.78605,-0.52357 -4.59922,-1.17309 -5.69459,-2.03993 -0.39507,-0.31264 -0.72943,-0.68526 -0.92475,-1.03055 -0.17118,-0.18051 -0.26834,-0.26489 -0.32219,-0.49235 -0.12595,-0.50988 -0.18238,-0.85277 -0.20957,-1.27345 -0.002,-0.045 -0.0139,-0.0719 -0.0301,-0.0736 -0.0139,-10e-4 -0.16919,-10e-4 -0.34479,4.7e-4 -0.57229,0.006 -0.83953,-0.0248 -1.04448,-0.11833 -0.0978,-0.0447 -0.2391,-0.16723 -0.2352,-0.20383 0.004,-0.033 0.11838,-0.13046 0.2681,-0.22765 0.0631,-0.041 0.2901,-0.1594 0.50445,-0.26322 0.41894,-0.20291 0.77835,-0.41763 0.87884,-0.52501 0.0376,-0.0403 0.12168,-0.0956 0.21172,-0.13961 0.22144,-0.10813 0.64536,-0.36461 1.20086,-0.72653 0.27165,-0.17699 0.69328,-0.44518 0.93695,-0.59601 0.36783,-0.22766 0.47178,-0.28393 0.61225,-0.33145 0.42206,-0.14274 0.79897,-0.22228 1.15179,-0.24305 0.17665,-0.0104 0.2943,-0.006 0.60436,0.0202 l 0.38503,0.033 0.70061,0.3621 c 0.73197,0.37831 1.08597,0.54627 1.46922,0.69712 0.29622,0.11664 0.66768,0.2319 0.93617,0.29061 l 0.21372,0.0467 0.24208,-0.0484 c 0.35076,-0.0701 0.64487,-0.13787 1.18467,-0.27287 0.86216,-0.21558 1.11972,-0.27226 1.51446,-0.33324 0.57696,-0.0891 1.04016,-0.0926 1.54603,-0.0117 0.45587,0.0729 0.89532,0.21479 1.35715,0.4381 0.25119,0.1215 0.23978,0.11224 0.97916,0.79496 0.58321,0.53856 0.94754,0.82187 1.28006,0.99537 0.12813,0.0669 0.12869,0.0674 0.12233,0.12709 l -0.006,0.06 0.0756,0.002 0.0756,0.002 -0.006,0.059 c -0.006,0.0578 -0.004,0.0603 0.10991,0.12091 0.12342,0.0658 0.32678,0.23029 0.7546,0.61018 0.25186,0.22366 0.28225,0.24516 0.67856,0.48005 0.55001,0.32597 0.92743,0.53214 1.26852,0.69294 0.28995,0.13668 0.79243,0.34757 0.89077,0.37385 l 0.0559,0.015 -0.0332,0.18312 c -0.0178,0.10076 -0.051,0.21786 -0.0727,0.26034 l -0.0396,0.0771 -0.209,0.0105 c -0.26174,0.013 -0.73717,0.011 -0.98451,-0.004 -0.10349,-0.007 -0.24828,-0.0145 -0.32158,-0.018 l -0.13328,-0.006 -0.12767,0.16105 -0.12766,0.16106 -0.0982,0.0139 c -0.0824,0.0116 -0.10999,0.0251 -0.17188,0.0833 -0.40398,0.38028 -0.96087,0.77891 -1.47734,1.05751 -1.36208,0.73472 -2.92232,1.0716 -5.24264,1.13193 -0.651,0.0169 -2.48146,-0.003 -2.68807,-0.0288 -0.0542,-0.006 -0.15995,-0.0279 -0.23485,-0.0468 z"
       id="path4945"
       inkscape:connector-curvature="0"
       sodipodi:nodetypes="csccccccsccsccccssccccccccccccsscscccccccscccccccccccccscccc" />
  </g>
</svg>
