<?xml version="1.0" encoding="UTF-8" standalone="no"?>
<!-- Created with Inkscape (http://www.inkscape.org/) -->

<svg
   xmlns:dc="http://purl.org/dc/elements/1.1/"
   xmlns:cc="http://creativecommons.org/ns#"
   xmlns:rdf="http://www.w3.org/1999/02/22-rdf-syntax-ns#"
   xmlns:svg="http://www.w3.org/2000/svg"
   xmlns="http://www.w3.org/2000/svg"
   xmlns:sodipodi="http://sodipodi.sourceforge.net/DTD/sodipodi-0.dtd"
   xmlns:inkscape="http://www.inkscape.org/namespaces/inkscape"
   width="24.313562mm"
   height="27.01816mm"
   viewBox="0 0 86.150418 95.733637"
   id="svg5941"
   version="1.1"
   inkscape:version="0.91 r13725"
   sodipodi:docname="Smear1.svg">
  <defs
     id="defs5943" />
  <sodipodi:namedview
     id="base"
     pagecolor="#ffffff"
     bordercolor="#666666"
     borderopacity="1.0"
     inkscape:pageopacity="0.0"
     inkscape:pageshadow="2"
     inkscape:zoom="0.35"
     inkscape:cx="-123.35336"
     inkscape:cy="502.15255"
     inkscape:document-units="px"
     inkscape:current-layer="layer1"
     showgrid="false"
     fit-margin-top="0"
     fit-margin-left="0"
     fit-margin-right="0"
     fit-margin-bottom="0"
     inkscape:window-width="1366"
     inkscape:window-height="705"
     inkscape:window-x="-8"
     inkscape:window-y="-8"
     inkscape:window-maximized="1" />
  <metadata
     id="metadata5946">
    <rdf:RDF>
      <cc:Work
         rdf:about="">
        <dc:format>image/svg+xml</dc:format>
        <dc:type
           rdf:resource="http://purl.org/dc/dcmitype/StillImage" />
        <dc:title></dc:title>
      </cc:Work>
    </rdf:RDF>
  </metadata>
  <g
     inkscape:label="Layer 1"
     inkscape:groupmode="layer"
     id="layer1"
     transform="translate(-11.210505,-938.78112)">
    <path
       style="opacity:1;fill:#ffcc00;fill-opacity:1;stroke:#ffcc00;stroke-width:3;stroke-linejoin:miter;stroke-miterlimit:3.9000001;stroke-dasharray:none;stroke-dashoffset:0;stroke-opacity:1"
       id="path4755"
       d="m 68.384936,1030.1318 c 2.73907,-1.6211 5.53059,-3.1495 8.30882,-4.7007 0.63074,-0.3522 2.51556,-0.7352 1.87986,-1.0784 -0.62309,-0.3363 -3.74615,2.5473 -0.88162,0.048 0.14856,-0.25 0.3534,-0.4742 0.44567,-0.7499 0.0843,-0.2519 -0.54677,-0.044 -0.79504,0.05 -1.90967,0.7245 -3.70563,1.7229 -5.52956,2.6349 -4.13937,2.1615 -8.30583,4.2639 -12.46068,6.3935 -0.34557,0.095 -0.67867,0.2974 -1.03672,0.2841 -0.92109,-0.034 -0.44267,-1.2605 -0.30264,-1.6011 0.94886,-2.3079 3.09728,-4.1847 4.80258,-5.8789 8.17102,-6.7097 17.46972,-11.8614 26.78136,-16.7912 7.28103,-3.9575 1.06589,-0.5573 0.7425,-0.452 -0.19762,0.064 0.49156,-0.3765 0.34233,-0.5211 -0.1873,-0.1816 -0.51613,0.079 -0.77614,0.1006 -3.92905,0.321 -0.63163,-0.1323 -5.44266,0.6985 -10.47104,1.8506 -20.33635,5.9784 -29.8084,10.6832 -4.10915,2.1206 -6.03892,3.5981 -10.321449,5.9094 -0.19586,0.1057 -0.62112,0.3778 -0.64899,0.157 -0.17801,-1.4106 2.068039,-2.5307 2.676849,-2.9988 10.76991,-7.7172 22.03563,-14.6644 33.50222,-21.2843 3.9402,-2.27355 7.97018,-4.37995 11.951,-6.57965 0.73175,-0.4044 1.46132,-0.8129 2.20012,-1.2043 0.26988,-0.1429 1.07162,-0.5784 0.82515,-0.3981 -1.51373,1.1075 -3.09144,2.1247 -4.63716,3.1871 -14.37824,5.00235 -28.92629,9.50495 -43.39218,14.24665 -5.190368,1.0369 -11.232868,4.5515 -16.718988,4.2334 -0.58381,-0.034 -1.35756,-0.1619 -1.6141,-0.6874 -0.79044,-1.6192 2.34959,-3.8556 2.76798,-4.273 10.9249,-8.1677 23.758708,-12.92745 36.531248,-17.32235 3.8879,-1.3688 7.87635,-2.4091 11.8247,-3.5794 0.36603,-0.1085 1.40316,-0.5705 1.08967,-0.3526 -4.87025,3.385 -3.88874,2.743 -8.6949,4.0919 -12.09661,3.4655 -24.05277,7.3917 -36.092438,11.04345 -0.74256,0.029 -1.55022,0.3936 -2.22769,0.088 -1.21571,-0.5481 0.34916,-2.0927 1.72386,-3.1045 1.21105,-0.89135 2.53377,-1.62325 3.84535,-2.35875 8.136888,-4.5629 7.157988,-3.9618 14.432008,-7.2681 6.84535,-2.8417 13.63634,-5.8216 20.50832,-8.5994 4.62915,-1.87122 1.84176,-0.5841 5.30677,-2.2645 -1.88903,0.95034 -3.68601,2.1115 -5.66711,2.851 -1.32026,0.4929 -2.77326,0.5067 -4.14879,0.813 -1.95131,0.4347 -3.89,0.9246 -5.82941,1.4095 -7.61509,1.9043 -15.19735,3.9447 -22.786378,5.9492 -5.74202,1.0988 -11.25157,3.6219 -17.08283,4.3405 -0.48569,0.06 -1.25173,0.3008 -1.46126,-0.1414 -0.56707,-1.1969 2.16528,-2.4727 3.85439,-3.5724 2.86663,-1.5354 5.68178,-3.171 8.59991,-4.6062 2.82643,-1.39 11.910118,-5.0717 14.535238,-6.10466 8.16643,-3.21342 16.42121,-6.14419 24.73141,-8.95866 5.71066,-1.93421 11.47926,-3.67998 17.19247,-5.60541 1.02115,-0.34414 2.04961,-0.6678 3.0611,-1.03937 0.44883,-0.16487 1.69907,-0.85618 1.31687,-0.56885 -1.32061,0.99283 -2.77,1.80169 -4.155,2.70253 -7.74677,2.62234 -15.6873,4.60903 -23.51443,6.96238 -8.21414,2.4697 -11.78076,3.76125 -19.95262,6.534 -8.356338,2.81784 -16.653608,5.79274 -24.877648,8.97434 -2.284749,0.8839 -6.542869,3.0321 -9.270929,3.0617 0.28019,-0.4542 0.40378,-1.0559 0.84056,-1.3625 8.128539,-5.7046 17.842679,-8.4877 27.262629,-11.1369 9.102018,-2.32992 18.321918,-4.14716 27.447178,-6.37748 0.36863,-0.16428 1.44859,-0.706 1.10589,-0.49284 -1.37629,0.85602 -2.70409,1.83665 -4.21394,2.42598 -0.72874,0.28444 -1.56201,0.0894 -2.34306,0.13336 -1.29727,0.073 -2.59578,0.12621 -3.8919,0.21741 -4.47631,0.31497 -5.68702,0.48612 -10.27229,0.97119 -4.741139,0.39321 -9.447128,1.22672 -14.190888,1.59003 -1.10638,0.0847 -3.69378,0.38616 -4.1418,-0.48651 -0.19285,-0.37564 0.24833,-0.80715 0.3725,-1.21073 8.7787,-5.85608 19.697578,-7.79675 29.840798,-10.13669 0.0521,-0.0131 7.51288,-1.87851 8.01971,-2.02104 0.77027,-0.21662 2.86498,-1.29091 2.28295,-0.74184 -2.44937,2.3107 -5.9911,2.5612 -9.07894,3.02029 -10.28917,1.72474 -20.499478,4.05162 -30.382558,7.40906 -0.36973,0.0974 -5.50838,2.14988 -6.1009,1.36317 -1.0159,-1.34883 2.66408,-3.56007 3.14121,-3.93618 6.3486,-4.26623 13.27072,-7.50764 20.412598,-10.17979 4.41859,-1.63533 8.88046,-3.21073 13.13695,-5.24061 -0.88225,0.46464 -1.73108,0.99923 -2.64676,1.39393 -0.0819,0.0353 -0.12496,-0.15309 -0.21382,-0.16089 -0.63947,-0.0561 -1.28432,-0.0557 -1.92559,-0.0267 -1.2306,0.0556 -2.46065,0.14386 -3.68492,0.2803 -4.62482,0.51542 -6.94131,1.01226 -11.671108,1.84864 -6.90131,1.12834 -13.7067,2.73382 -20.54339,4.17879 -1.32876,0.28084 -6.329989,1.42869 -8.278829,1.27042 -0.41934,-0.0341 -0.73466,-0.41024 -1.102,-0.61536 0.2827,-0.53937 0.39743,-1.20855 0.84809,-1.61811 0.86349,-0.78475 1.94005,-1.30436 2.97032,-1.85207 2.69488,-1.43265 5.386249,-2.8895 8.194989,-4.0836 2.00454,-0.85221 4.12242,-1.41145 6.20803,-2.03967 5.88225,-1.77182 8.6399,-2.33602 14.677728,-3.7803 6.37931,-1.58874 12.85419,-2.73282 19.26336,-4.18588 0.98015,-0.22222 3.30806,-1.64538 2.9292,-0.71449 -0.15568,0.38253 -3.58561,1.94019 -4.69676,2.45591 -6.36147,0.77959 -12.60654,2.24587 -18.868649,3.56196 -0.064,0.007 -1.909399,0.37549 -2.304009,0.0116 -0.96469,-0.88964 1.557809,-2.11642 1.810079,-2.26275 1.847779,-1.07182 3.713909,-2.11168 5.570859,-3.16753 0.77586,-0.33971 1.53969,-0.70831 2.32757,-1.01914 2.4016,-0.94747 4.88997,-1.67169 7.318,-2.54339 0.6453,-0.23168 2.39768,-1.23852 1.91445,-0.75213 -0.70779,0.71241 -1.75266,0.98089 -2.62899,1.47133 0.10602,-0.13294 0.30318,-0.22944 0.31806,-0.39883 0.005,-0.0565 -0.46712,-0.21928 -1.17708,-0.32964 -1.92258,-0.29887 -3.88494,-0.31144 -5.8242,-0.37682 -5.15879,-0.23951 -10.260808,0.76378 -15.354728,1.43584 -1.57655,0.16509 -5.87291,0.49698 -4.06512,-2.20463 0.19481,-0.21871 0.38962,-0.43742 0.58444,-0.65613 0,0 4.04226,-1.69826 4.04226,-1.69826 l 0,0 c -0.19461,0.21205 -0.38921,0.42411 -0.58382,0.63616 -0.0951,0.0903 -0.72803,0.60714 -0.74861,0.87337 -0.0629,0.81302 3.93612,0.55011 4.20355,0.4867 5.109659,-0.6609 10.225668,-1.64221 15.399358,-1.38178 1.10351,0.0365 7.2148,-0.13904 7.54626,1.42366 0.0473,0.2231 -0.18173,0.41836 -0.27259,0.62754 -1.60885,0.91619 -3.18071,1.90061 -4.82654,2.74857 -3.53453,1.82104 -8.0515,2.25288 -11.51819,4.35726 0.60841,-0.36421 1.24403,-0.68641 1.82525,-1.09263 0.41019,-0.28669 -0.8782,0.48045 -1.31038,0.73278 -0.24766,0.14459 -0.48261,0.3101 -0.72854,0.45762 -0.0709,0.0425 -0.29608,0.0769 -0.22129,0.11216 0.19733,0.0931 0.43042,0.098 0.64845,0.0894 0.49456,-0.0195 0.98313,-0.1155 1.47469,-0.17325 6.28859,-1.29415 12.56647,-2.6883 18.93576,-3.54402 0.64211,0.11719 2.33557,-0.15695 1.92635,0.35157 -1.66826,2.0731 -4.54714,2.45826 -6.9054,2.95643 -6.37595,1.34691 -12.78701,2.53005 -19.117158,4.08848 -5.90744,1.43352 -8.96677,2.07492 -14.72321,3.85852 -2.10708,0.65286 -4.14843,1.51002 -6.26456,2.13293 -0.33521,0.0987 -0.72642,-0.11679 -1.048099,0.0197 -2.06358,0.87531 -2.62107,1.42453 -4.08838,2.60294 0.28209,0.16099 0.5222,0.46137 0.84627,0.48297 2.09868,0.13989 6.465069,-0.84876 8.060249,-1.17806 6.84605,-1.41326 13.6571,-3.00756 20.554908,-4.16698 5.09283,-0.91706 10.44232,-2.21827 15.65891,-2.22083 1.13432,-5.6e-4 3.58624,0.3267 2.69104,1.09408 -1.41312,1.21135 -3.18621,1.92488 -4.77931,2.88732 -4.26608,1.97171 -8.70319,3.55571 -13.1109,5.1772 -5.232138,1.98655 -10.280978,4.10275 -13.090878,5.97013 -1.44658,1.10567 -1.89994,1.38106 -3.1114,2.52121 -0.15497,0.14584 -0.55876,0.30506 -0.42843,0.47329 0.50114,0.64687 5.75236,-1.46644 5.81233,-1.38769 9.926478,-3.27385 20.151498,-5.57486 30.444088,-7.3656 1.28397,-0.19931 2.55495,-0.51919 3.8519,-0.59793 0.77225,-0.0469 2.68665,-0.45207 2.31019,0.22383 -1.81552,3.2595 -10.93019,4.04951 -13.98685,5.10516 -5.31224,1.2236 -10.61836,2.47767 -15.857908,3.99012 -1.59334,0.45993 -3.11876,1.19157 -4.75429,1.46599 -0.22349,0.0375 0.27669,-0.72697 0.0555,-0.6776 -0.75394,0.16831 -1.35322,0.74556 -2.02982,1.11833 -0.24933,0.18666 -0.8472,0.26474 -0.74799,0.55998 0.23814,0.70869 2.70328,0.49486 3.86201,0.41298 4.719159,-0.33344 9.403008,-1.13773 14.116088,-1.53415 4.92031,-0.53102 5.58074,-0.63987 10.36551,-1.01739 1.3248,-0.10453 2.65067,-0.19691 3.97744,-0.27259 0.83602,-0.0477 2.61089,-0.92876 2.51023,-0.0975 -0.24309,2.00758 -2.41146,2.61735 -3.90351,3.15226 -9.06781,2.10396 -18.20392,3.90569 -27.221268,6.22648 -4.94481,1.4134 -7.46824,2.0315 -12.24258,3.7867 -7.319109,2.6908 -2.56005,1.1264 -8.866429,3.9422 -0.37614,0.168 1.35916,-0.3813 1.0493,-0.6528 -0.34952,-0.3062 -0.88966,0.2687 -1.33449,0.403 2.46127,-0.062 6.873049,-2.1704 8.841009,-2.9178 8.17718,-3.1055 16.41759,-6.0301 24.707188,-8.82325 14.58735,-4.94934 29.3417,-9.30237 44.06443,-13.82079 -0.93366,0.86675 -1.78699,1.82901 -2.80098,2.60026 -0.35167,0.26748 -0.82063,0.32877 -1.23852,0.47222 -0.98914,0.33955 -1.98761,0.65129 -2.98158,0.97643 -5.6571,1.85047 -11.35657,3.56216 -16.99908,5.45838 -8.30746,2.80643 -16.55498,5.73592 -24.70781,8.97065 -10.855148,4.3069 -4.679518,1.9683 -14.662018,6.2475 -0.49503,0.2122 -1.01335,0.3653 -1.52003,0.548 -1.02762,0.6279 -2.05431,1.2574 -3.08287,1.8838 -0.37758,0.23 -1.19913,0.2478 -1.13551,0.6853 0.0605,0.4162 0.83694,0.1832 1.25465,0.134 5.7471,-0.6767 11.18908,-3.0655 16.834829,-4.1815 7.632019,-2.0154 15.253089,-4.0807 22.902669,-6.029 1.97455,-0.5029 3.9476,-1.0137 5.93417,-1.4667 1.41925,-0.3237 2.97041,-1.49661 4.28096,-0.86297 0.79237,0.3831 -0.75908,1.58817 -1.13861,2.38227 -8.39866,3.8441 -17.21113,6.7857 -25.59346,10.6815 -3.92121,1.8043 -7.594818,3.1831 -11.183888,5.5286 -0.70207,0.4589 -1.40725,0.9316 -2.00585,1.51915 -0.16185,0.1588 -0.42005,0.5819 -0.20347,0.6491 0.64966,0.2017 1.35944,-0.053 2.03917,-0.079 12.075258,-3.57095 24.045998,-7.49005 36.122078,-11.06035 1.28903,-0.3788 2.70761,-1.8152 3.86709,-1.1364 0.8579,0.5022 -1.18928,1.6138 -1.9416,2.2636 -0.25791,0.2227 -0.65868,0.1752 -0.98718,0.2659 -0.9789,0.2703 -1.95841,0.5385 -2.93501,0.8169 -4.71181,1.3434 -3.67626,1.0589 -8.72759,2.6663 -4.30923,1.4802 -7.215,2.4333 -11.50381,4.0986 -2.08799,0.8108 -4.1339,1.72735 -6.22244,2.53665 -0.8439,0.327 -1.762669,0.4653 -2.571609,0.8711 -3.667509,1.8402 -5.845809,3.4719 -9.134609,5.7234 -0.96062,0.8687 -3.35837,2.6864 -3.06593,3.4743 0.17421,0.4694 0.88209,0.5632 1.38213,0.5878 5.6378,0.278 11.017159,-3.0228 16.366188,-4.0737 14.62932,-4.7665 29.34288,-9.31275 43.79693,-14.59285 -0.73906,0.7457 -1.42821,1.5444 -2.21719,2.237 -0.20185,0.1772 -0.48921,0.2227 -0.72696,0.3477 -0.7187,0.3778 -1.42919,0.7712 -2.14169,1.1606 -3.93675,2.1517 -7.91482,4.22585 -11.80179,6.46805 -9.13938,5.1881 -17.77797,11.2146 -26.41886,17.1795 -2.33575,1.7333 -1.29934,1.3194 -3.14561,1.8919 -0.15936,0.049 0.60756,-0.2569 0.47627,-0.154 -0.40161,0.315 -1.74468,1.0599 -1.30375,0.8029 9.91484,-5.7793 3.9325,-2.4587 11.4846,-6.5716 9.5484,-4.6907 19.47812,-8.7972 30.00359,-10.6824 0.93285,-0.1568 5.97782,-1.4294 6.85258,-0.064 0.63179,0.9862 -6.70192,4.4151 -8.34062,5.3877 -1.38148,0.7308 -2.82944,1.3365 -4.18325,2.1174 -5.38616,3.1067 -10.61416,6.5263 -15.4436,10.4492 -1.9685,1.9107 -3.25455,3.3877 -4.74647,5.6414 -0.15557,0.2351 -0.41193,0.4219 -0.48171,0.6949 -0.10435,0.4083 2.62609,-0.6678 1.24167,-0.238 4.13459,-2.1209 8.29536,-4.1868 12.4099,-6.3477 0.5867,-0.2941 8.5545,-4.9837 6.5671,-0.9106 -2.4435,2.2726 -5.46946,3.7517 -8.36874,5.371 -0.61141,0.3414 -2.38175,1.4562 -1.8426,1.0093 0.63884,-0.5296 1.43481,-0.8342 2.14633,-1.2611 0.38462,-0.2308 -0.77703,0.4483 -1.16554,0.6725 0,0 -4.09669,1.5805 -4.09669,1.5805 z"
       inkscape:connector-curvature="0" />
  </g>
</svg>
