<?xml version="1.0" encoding="UTF-8" standalone="no"?>
<!-- Created with Inkscape (http://www.inkscape.org/) -->

<svg
   xmlns:dc="http://purl.org/dc/elements/1.1/"
   xmlns:cc="http://creativecommons.org/ns#"
   xmlns:rdf="http://www.w3.org/1999/02/22-rdf-syntax-ns#"
   xmlns:svg="http://www.w3.org/2000/svg"
   xmlns="http://www.w3.org/2000/svg"
   xmlns:sodipodi="http://sodipodi.sourceforge.net/DTD/sodipodi-0.dtd"
   xmlns:inkscape="http://www.inkscape.org/namespaces/inkscape"
   width="33.028118mm"
   height="28.03767mm"
   viewBox="0 0 117.02877 99.346075"
   id="svg4808"
   version="1.1"
   inkscape:version="0.91 r13725"
   sodipodi:docname="Smear3.svg">
  <defs
     id="defs4810" />
  <sodipodi:namedview
     id="base"
     pagecolor="#ffffff"
     bordercolor="#666666"
     borderopacity="1.0"
     inkscape:pageopacity="0.0"
     inkscape:pageshadow="2"
     inkscape:zoom="0.35"
     inkscape:cx="-53.47577"
     inkscape:cy="467.05631"
     inkscape:document-units="px"
     inkscape:current-layer="layer1"
     showgrid="false"
     fit-margin-top="0"
     fit-margin-left="0"
     fit-margin-right="0"
     fit-margin-bottom="0"
     inkscape:window-width="1366"
     inkscape:window-height="705"
     inkscape:window-x="-8"
     inkscape:window-y="-8"
     inkscape:window-maximized="1" />
  <metadata
     id="metadata4813">
    <rdf:RDF>
      <cc:Work
         rdf:about="">
        <dc:format>image/svg+xml</dc:format>
        <dc:type
           rdf:resource="http://purl.org/dc/dcmitype/StillImage" />
        <dc:title></dc:title>
      </cc:Work>
    </rdf:RDF>
  </metadata>
  <g
     inkscape:label="Layer 1"
     inkscape:groupmode="layer"
     id="layer1"
     transform="translate(58.667087,-900.07244)">
    <path
       style="opacity:1;fill:#deaa87;fill-opacity:1;stroke:#deaa87;stroke-width:3;stroke-linejoin:miter;stroke-miterlimit:3.9000001;stroke-dasharray:none;stroke-dashoffset:0;stroke-opacity:1"
       id="path4761"
       d="m 12.058512,995.33612 c 4.6776,-1.9241 9.05164,-4.4404 13.4467,-6.9221 -0.31287,0.1567 -1.24065,0.6468 -0.93862,0.4701 2.07233,-1.2126 4.16594,-2.3884 6.25118,-3.5786 0.80698,-0.4606 1.65576,-0.8533 2.42544,-1.3738 0.50423,-0.3411 -1.81847,1.4099 -1.62527,0.8327 0.21372,-0.6386 1.1448,-0.7096 1.70771,-1.0791 0.41134,-0.27 0.80962,-0.5594 1.21442,-0.8391 0.18951,-0.1943 0.43575,-0.3463 0.56853,-0.5831 0.64597,-1.1518 -7.16386,0.2345 -7.22331,0.2454 -5.07004,1.0741 -9.83033,3.1824 -14.42055,5.5326 0.75179,-0.4128 1.47526,-0.882 2.25538,-1.2384 0.43461,-0.1985 -0.79886,0.5256 -1.21377,0.7625 -2.81859,1.6098 -5.7089903,3.2776 -8.6914803,4.5999 -6.75887001,2.3911 1.78398,-5.7334 2.42989,-6.3698 2.7572003,-2.4611 5.7083303,-4.7013 8.7821403,-6.7515 1.94535,-1.2976 4.05226,-2.3448 5.82281,-3.8781 -0.0756,0.1022 -0.11034,0.2556 -0.22681,0.3065 -1.88056,0.8213 -3.87947,1.342 -5.79356,2.0818 -5.53366,2.1388 -10.9990703,4.399 -16.42530031,6.7958 -3.58901999,1.6946 -7.24608999,3.2412 -10.84183969,4.9211 -1.4446,0.6749 -5.97928,2.9715 -7.77853,3.6334 -2.04314,0.7516 -1.60628,0.8677 -2.4881,-0.2557 0.37235,-0.5821 0.63944,-1.2469 1.11705,-1.7462 2.90523,-3.0372 8.28945,-6.0095 11.8533197,-8.0617 9.30251,-5.3567 8.55981999,-4.8476 17.11677,-9.1255 13.6142503,-6.7153 27.8345603,-12.031 42.1654913,-16.9788 -4.29495,3.5147 6.5766,-3.2568 5.18505,-2.0287 -1.16724,1.03 -2.47389,1.9112 -3.83889,2.6597 -0.74579,0.409 -1.61176,0.5464 -2.43021,0.7779 -4.55185,1.2875 -7.12396,1.8087 -12.008091,2.9425 -19.36098,4.2202 -38.32078031,10.0231 -57.51673,14.9052 -4.78471,0.9772 -9.34315,2.8532 -14.15286,3.7201 -2.40925,0.4343 -2.66671,0.3437 -1.53406,-1.5334 9.43689,-6.8962 20.256,-11.4612 31.0093197,-15.8567 12.85969,-5.0493 25.7770703,-9.9651 38.4998503,-15.35356 2.4369,-1.03661 3.94046,-1.61108 6.21359,-2.79203 0.599861,-0.31164 2.386801,-1.25773 1.756441,-1.01363 -6.159091,2.38502 -0.42277,0.82381 -4.530171,1.62118 -16.42326,3.80906 -32.6461803,8.41724 -48.92923,12.77454 -8.65301,2.4192 -17.38255,4.5481 -26.01966,7.0249 -3.5478,1.0173 -7.02583,2.3699 -10.6217,3.189 -2.14382,-0.6597 3.21851,-3.3326 5.95301,-4.8667 8.32701,-4.6718 6.28177,-3.558 13.46354,-7.1428 11.98356,-5.25264 24.3996597,-9.47863 36.9956597,-12.99314 3.2163803,-1.08581 6.6100403,-1.6164 9.7882703,-2.82586 0.48377,-0.1841 1.83653,-0.95141 1.39715,-0.67778 -6.2229,3.87529 -4.0315,2.85903 -9.92262,4.56333 -16.8221603,4.90632 -33.41508,10.57395 -50.09847,15.93105 -4.84641,1.646 -6.71236,2.1891 -11.21113,4.0168 -1.79272,0.7284 -3.4963,1.6769 -5.32123,2.3203 -0.25177,0.089 -0.65381,0.3572 -0.79059,0.1279 -0.18787,-0.3149 0.14963,-0.7179 0.22444,-1.0769 5.96916,-5.1425 12.71887,-9.24 19.50066,-13.201 9.27134,-5.44658 18.86924,-10.37709 28.8759297,-14.32713 2.95065,-1.02785 5.82662,-2.26651 8.76569999,-3.32377 2.25214001,-0.81016 4.49500001,-1.42251 6.64861001,-2.47718 -1.19815,0.62571 -2.33779,1.37925 -3.59445,1.87712 -0.5028,0.1992 -1.07219,0.14966 -1.61182,0.18551 -1.27981001,0.085 -2.56384001,0.0947 -3.84382,0.17696 -1.87686,0.12067 -3.75167,0.27244 -5.62563,0.43189 -6.8218497,0.58043 -7.6543997,0.71237 -14.6130897,1.46569 -6.44116,0.63996 -12.86044,1.48886 -19.26274,2.43801 -2.73449,0.40539 -5.48407,1.1124 -8.25624,0.89958 -0.0729,-0.32255 -0.34726,-0.66305 -0.21855,-0.96764 0.89449,-2.11671 5.66268,-4.64996 7.37149,-5.65049 7.67228,-4.49223 7.01214,-4.05814 13.90621,-7.67384 13.39537,-6.72486 27.2946897,-12.35785 41.06846,-18.2418 1.35088,-0.61003 2.69388,-1.23783 4.05264,-1.8301 2.19898,-0.95851 8.90734,-3.66576 -2.38981,2.22657 -1.20009,0.62594 -2.55273,0.90098 -3.82567,1.36102 -1.9133903,0.69151 -3.8221503,1.39574 -5.7332303,2.0936 -14.26636,4.58559 -28.1754197,10.28687 -42.5974397,14.37933 -1.1361,0.2382 -2.25718,0.56506 -3.40831,0.71459 -6.4576,0.83886 0.22287,-5.39504 1.38536,-6.52727 6.67096,-5.92325 14.64755,-9.93984 22.44848,-14.12262 -0.52996,0.29971 -0.98215,0.86233 -1.58988,0.89912 -2.24953,0.13621 1.882,-0.72378 1.13818,-1.23189 -0.0312,-0.0213 -2.48307,0.53863 -2.553,0.55796 -0.2926,0.13636 -1.15874,0.56813 -0.87782,0.40909 1.14762,-0.64969 2.25044,-1.3845 3.43904,-1.95577 1.02375,-0.49203 2.36627,-0.67869 3.43937,-1.04859 2.1566,-0.75127 1.11623,-0.33135 3.12504,-1.25001 0,0 -3.39656,2.69138 -3.39656,2.69138 l 0,0 c -2.03255,0.87448 -0.98388,0.46635 -3.14911,1.21638 -0.80617,0.26072 -2.05029,0.72228 -2.93575,0.80346 -0.44675,0.041 -1.55322,-0.31269 -1.2062,-0.59702 2.4441,-2.00259 2.99581,-2.14528 5.02613,-2.91674 0.40892,-0.0903 0.8114,-0.21767 1.22678,-0.27092 0.40765,-0.0523 2.55302,-0.0573 1.80458,1.09271 -1.45683,2.23842 -6.41473,1.56834 -6.78961,4.25406 -1.74318,0.92649 -4.22428,2.25544 -5.94796,3.12545 -0.0707,0.0357 0.2545,-0.18796 0.18811,-0.14487 -3.27628,2.12653 -6.50954,4.3181 -9.47293,6.87475 -0.94802,0.90472 -7.56255,6.31937 -1.94472,5.5962 1.11169,-0.14311 2.19732,-0.444 3.29598,-0.666 14.4179,-4.02074 28.3109797,-9.7054 42.5258497,-14.36448 1.94748,-0.72541 3.8943203,-1.45255 5.8424303,-2.17625 1.31219,-0.48746 2.57629,-1.77962 3.93846,-1.45723 0.83954,0.19871 -1.04988,1.37319 -1.64185,2.00079 -0.0816,0.0866 -0.23096,0.0596 -0.34195,0.10244 -2.78453,1.07591 -3.01351,1.23609 -6.2536203,2.67155 -13.78289,5.81713 -27.6579397,11.46644 -41.0106297,18.23878 -2.73253,1.44807 -13.01928,6.3096 -14.39976,9.25314 2.66917,0.18733 5.34998,-0.44361 7.98331,-0.81017 6.37008,-0.88671 12.75139,-1.70224 19.15164,-2.34073 6.8088,-0.749 13.6205297,-1.52522 20.4535497,-2.0271 1.32647,-0.0974 2.65459,-0.26121 3.98402,-0.22085 0.7036,0.0214 2.40548,-0.21552 2.07263,0.40474 -0.73436,1.36848 -2.50911,1.83099 -3.76366,2.74649 -4.96516,2.21934 -10.33364,3.50629 -15.3219397,5.69476 -7.46571,2.96639 -14.6829,6.49685 -21.77094,10.27324 -6.69961,3.8987 -13.30527,7.9607 -19.27326,12.9392 -0.25186,0.052 -0.49957,0.1313 -0.75559,0.1547 -0.22511,0.02 0.44987,-0.069 0.66221,-0.1461 0.63789,-0.2328 1.25535,-0.5182 1.88101,-0.7822 4.69785,-1.9817 9.44988,-3.8213 14.34642,-5.2691 16.77928,-5.3249 33.4436797,-11.01852 50.30423,-16.07927 1.46134,-0.44131 2.88859,-1.63041 4.38403,-1.32393 0.74838,0.15337 -0.60538,1.44176 -1.13829,1.98911 -0.34789,0.35732 -0.9037,0.42617 -1.3742,0.59147 -3.16027,1.11029 -6.4782303,1.69389 -9.6655103,2.71338 -12.57572,3.47801 -24.9707497,7.68734 -36.8923097,13.01244 -1.82225,0.9187 -3.63208,1.8624 -5.46674,2.756 -0.30368,0.1479 -0.64722,0.2067 -0.94462,0.3669 -1.13394,0.6107 -2.22722,1.2941 -3.34082,1.9412 -0.72175,0.4584 -1.41349,0.968 -2.16524,1.3753 -0.33807,0.1832 -0.73962,0.2215 -1.0867,0.387 -0.054,0.026 0.11502,0.033 0.17253,0.049 3.48623,-0.776 6.87816,-2.0252 10.32019,-2.9828 8.57787,-2.3863 17.23352,-4.4751 25.8114197,-6.8619 16.47892,-4.42159 32.8845803,-9.1468 49.4862813,-13.08995 0.662,0.0365 1.35704,-0.10007 1.98602,0.10962 1.45874,0.48633 -1.87064,2.04263 -4.289491,3.53758 -2.45949,1.52007 -5.21408,2.50129 -7.8507,3.64791 -12.69892,5.29254 -25.5602703,10.18484 -38.3562003,15.23614 -2.35492,0.9714 -4.7098497,1.9429 -7.0647697,2.9144 -2.07552,0.9171 -4.13107,1.8808 -6.22655,2.7513 -0.53286,0.2213 -1.13601,0.2603 -1.65075,0.5211 -3.12901,1.5851 -6.02335,3.6471 -8.952,5.5625 -0.32797,0.1865 -0.72656,0.2835 -0.9839,0.5594 -0.42321,0.4537 1.24798,0.1939 1.85921,0.088 4.7097,-0.8197 9.19385,-2.5832 13.87632,-3.5244 19.2326997,-4.8088 38.21206,-10.587 57.560901,-14.9322 7.46321,-1.8135 5.90428,-1.3455 12.24657,-3.1597 0.87625,-0.2506 2.85565,-1.6599 2.62077,-0.7793 -0.68509,2.5684 -6.25911,3.7088 -8.14463,4.4963 -14.286671,4.8655 -28.439631,10.1642 -41.9713213,16.8942 -8.10145,4.0834 -16.5527397,8.0071 -23.2604997,14.2617 0.48998,0.8168 0.1924,0.5592 1.99162,-0.1121 1.12352,-0.4192 2.20208,-0.9508 3.29032,-1.4545 5.0559497,-2.3402 10.0760397,-4.7592 15.1856397,-6.9844 7.7678103,-3.4169 3.86496,-1.7762 11.6140003,-4.8878 1.99303,-0.8003 8.76985,-3.9461 11.09861,-3.9935 0.275,-0.01 0.41359,0.3627 0.62039,0.5441 -1.76943,1.6366 -3.94007,2.6639 -5.9487,3.9853 -3.07536,2.0232 -6.02334,4.2457 -8.78787,6.6771 -0.23395,0.2291 -5.6230703,5.3612 -5.0032203,5.8384 0.56758,0.4368 1.7609,-0.9465 2.07478,-0.5589 2.5433703,-1.1919 0.10203,-0.02 2.5139303,-1.2564 0.40252,-0.2062 1.58313,-0.8652 1.21769,-0.5987 -0.78837,0.575 -1.65797,1.0295 -2.4953,1.5305 -0.41502,0.2483 0.81881,-0.5149 1.22822,-0.7724 1.71435,-1.0056 3.4287,-2.0113 5.14306,-3.017 4.6057,-2.3254 9.39887,-4.3642 14.47313,-5.4134 0.81921,-0.1417 8.22843,-1.574 7.85148,0.6264 -0.0505,0.2951 -0.37985,0.4627 -0.56977,0.6941 -6.91533,4.8537 -10.81644,6.2178 -16.37015,9.8212 -4.43878,2.5129 -8.87642,5.0336 -13.6162403,6.9504 0,0 3.4640403,-2.6912 3.4640403,-2.6912 z"
       inkscape:connector-curvature="0" />
  </g>
</svg>
