<?xml version="1.0" encoding="UTF-8" standalone="no"?>
<!-- Created with Inkscape (http://www.inkscape.org/) -->

<svg
   xmlns:dc="http://purl.org/dc/elements/1.1/"
   xmlns:cc="http://creativecommons.org/ns#"
   xmlns:rdf="http://www.w3.org/1999/02/22-rdf-syntax-ns#"
   xmlns:svg="http://www.w3.org/2000/svg"
   xmlns="http://www.w3.org/2000/svg"
   xmlns:sodipodi="http://sodipodi.sourceforge.net/DTD/sodipodi-0.dtd"
   xmlns:inkscape="http://www.inkscape.org/namespaces/inkscape"
   width="25.368216mm"
   height="28.83831mm"
   viewBox="0 0 89.887378 102.18299"
   id="svg5376"
   version="1.1"
   inkscape:version="0.91 r13725"
   sodipodi:docname="Smear2.svg">
  <defs
     id="defs5378" />
  <sodipodi:namedview
     id="base"
     pagecolor="#ffffff"
     bordercolor="#666666"
     borderopacity="1.0"
     inkscape:pageopacity="0.0"
     inkscape:pageshadow="2"
     inkscape:zoom="0.35"
     inkscape:cx="-78.254908"
     inkscape:cy="522.52005"
     inkscape:document-units="px"
     inkscape:current-layer="layer1"
     showgrid="false"
     fit-margin-top="0"
     fit-margin-left="0"
     fit-margin-right="0"
     fit-margin-bottom="0"
     inkscape:window-width="1366"
     inkscape:window-height="705"
     inkscape:window-x="-8"
     inkscape:window-y="-8"
     inkscape:window-maximized="1" />
  <metadata
     id="metadata5381">
    <rdf:RDF>
      <cc:Work
         rdf:about="">
        <dc:format>image/svg+xml</dc:format>
        <dc:type
           rdf:resource="http://purl.org/dc/dcmitype/StillImage" />
        <dc:title></dc:title>
      </cc:Work>
    </rdf:RDF>
  </metadata>
  <g
     inkscape:label="Layer 1"
     inkscape:groupmode="layer"
     id="layer1"
     transform="translate(33.887949,-952.69927)">
    <path
       style="opacity:1;fill:#a02c2c;fill-opacity:1;stroke:#668000;stroke-width:3;stroke-linejoin:miter;stroke-miterlimit:3.9000001;stroke-dasharray:none;stroke-dashoffset:0;stroke-opacity:1"
       id="path4757"
       d="m -4.3964097,956.7901 c -3.90113,1.4958 -7.8651603,2.8131 -11.8018603,4.21321 1.59933,-1.1131 -4.14609,2.04903 -3.12905,1.49854 0.98977,-0.53572 1.95022,-1.12941 2.96883,-1.60803 0.10255,-0.0482 -0.23583,0.20036 -0.17139,0.29357 0.0605,0.0876 0.19719,-0.084 0.30145,-0.10545 0.34143,-0.0703 0.688,-0.11266 1.03199,-0.16899 4.64042,-1.11241 9.3082603,-2.1017 13.9668803,-3.13571 0.68047996,-0.27053 9.7737,-2.2467 6.76414,1.30906 -0.52204,0.61678 -1.26552,1.00509 -1.89828,1.50763 -7.47362,5.05917 -16.1563003,7.3725 -24.6355603,10.09684 -1.58848,0.58996 -2.87874,1.00959 -4.36836,1.75249 -0.37667,0.18786 -1.46168,0.83439 -1.08686,0.64287 3.81664,-1.95018 2.02874,-1.67576 4.23968,-1.78681 0.44573,-0.0695 0.89935,-0.0998 1.33721,-0.20842 2.91695,-0.7234 5.8,-1.94734 8.64081,-2.8898 21.0714903,-6.99065 -12.50398,4.25764 11.56035026,-3.82109 6.34583004,-1.90386 12.57919974,-4.18767 18.94392674,-6.03023 1.71859,-0.49753 5.27262,-1.71596 7.40717,-1.19961 0.51872,0.12548 0.81914,0.6843 1.22871,1.02646 -0.10264,0.68034 -0.009,1.42144 -0.30791,2.04101 -0.90484,1.87364 -3.63006,4.28043 -5.03914,5.48312 -5.34546,4.56254 -11.190277,7.80687 -17.2888167,11.29376 -8.78189,4.43884 -18.3011303,6.99661 -27.5863803,10.10825 -0.77063,0.29246 -1.54393,0.57798 -2.3119,0.87738 -4.75749,1.85477 2.12387,-2.30803 3.52366,-3.09084 1.50084,-0.83931 6.32198,-2.38944 7.55651,-2.81284 11.5694903,-3.77794 23.3940403,-6.66817 35.085177,-10.02165 1.16702,-0.28871 2.30791,-0.71881 3.50105,-0.86613 1.43631,-0.17733 2.84321,-0.0963 2.22591,1.89665 -1.07381,3.46683 -7.25731,8.54601 -9.67723,10.84704 -9.8174667,8.63619 -19.8399467,17.09662 -30.923347,24.07082 -3.72311,2.2643 -5.21935,3.24 -9.55403,5.4666 -0.44011,0.2261 -0.91123,0.5433 -1.40263,0.4856 -0.88688,-0.1041 -0.18882,-1.1467 1.02386,-2.2075 0.91192,-0.7978 1.93736,-1.4556 2.90604,-2.1834 12.3178503,-7.8634 25.5139003,-14.32094 38.708757,-20.57587 0.78969,-0.38409 6.61646,-3.23581 7.91302,-3.8097 0.69351,-0.30696 1.37319,-0.68981 2.11863,-0.82951 1.36731,-0.25624 0.6987,1.36833 0.4334,1.82602 -0.44781,0.77256 -1.15019,1.36625 -1.72529,2.04937 -8.19883,7.80979 -18.0614167,13.46719 -27.9402767,18.83709 -1.66648,0.8334 -4.72102,2.4351 -6.59186,3.1218 -1.6582403,0.6086 -2.5391003,0.6002 -2.4720803,0.087 0.17683,-1.353 2.7338103,-2.7596 3.3325703,-3.2003 10.69672,-6.6653 22.0528467,-12.16302 33.5225367,-17.34617 0.0769,0.0921 6.36654,-2.96776 5.63095,0.1534 -0.71948,3.05283 -5.71564,6.83639 -7.77844,8.71639 -9.32378,8.20058 -19.9805267,14.50088 -30.7522667,20.55598 -7.7651003,4.3679 -1.35143,0.7357 -1.21752,0.7265 0.48386,-0.033 -0.7975,0.5532 -1.17878,0.8529 -0.0965,0.076 -0.27603,0.3901 -0.24991,0.2702 0.24634,-1.1306 1.02116,-0.9958 2.11766,-1.4543 8.85549,-3.8065 17.37345,-8.3267 26.0581067,-12.4933 0.54168,-0.1929 6.66908,-3.3854 7.50997,-1.8991 1.20485,2.1295 -3.88987,5.8528 -4.71154,6.6314 -1.39248,1.1466 -2.7314,2.3615 -4.17745,3.4397 -3.68211,2.7456 -7.9257167,5.3524 -11.8904167,7.6299 -7.87293,4.5225 -15.8159903,8.6669 -24.0182303,12.5357 -4.27638,1.22 -8.48072,4.446 -12.89239,5.329 -0.27095,0.054 -0.8797,0.024 -0.79386,-0.2388 0.24148,-0.7389 0.82234,-1.3772 1.46493,-1.8148 2.39166,-1.6286 5.02229,-2.8751 7.53343,-4.3127 17.3204403,-8.207 35.34952,-14.7646 53.193457,-21.7152 6.81382,-2.5448 13.45249,-5.5764 20.36902,-7.8488 1.05356,-0.3461 2.10531,-0.7408 3.20273,-0.9004 0.38408,-0.056 1.05674,-0.1107 1.13266,0.2699 0.11265,0.5648 -0.51358,1.031 -0.77037,1.5465 -10.37643,7.3253 -22.31859,11.9049 -33.96785,16.7493 -4.49986,1.5404 -8.803467,3.621 -13.3184767,5.1194 -0.4556,0.1512 -1.00605,0.6171 -1.39905,0.3415 -0.30552,-0.2143 0.0746,-0.8491 0.38927,-1.0497 2.1021,-1.3406 4.42924,-2.2904 6.6438597,-3.4356 11.194317,-4.6702 22.706047,-8.6003 34.387887,-11.8579 1.17712,-0.2248 2.33545,-0.5972 3.53134,-0.6743 2.80531,-0.181 2.98143,1.9125 1.53538,3.8185 -1.52381,2.0084 -4.1306,3.7065 -6.0578,5.1576 -12.18547,8.0976 -25.45449,14.3211 -38.6617967,20.5281 -1.35553,0.668 -2.68593,1.3897 -4.06659,2.0042 -0.62507,0.2782 1.22226,-0.6209 1.79596,-0.9937 0.1486,-0.097 0.18606,-0.3323 0.34962,-0.4005 0.84679,-0.3532 1.7557,-0.5354 2.62157,-0.8388 1.51131,-0.5297 3.0056197,-1.1066 4.5084297,-1.6599 1.815737,-0.6361 3.631487,-1.2723 5.447227,-1.9084 5.26152,-1.7465 10.45564,-3.6914 15.72148,-5.4251 2.48761,-0.819 4.89945,-1.8304 7.53284,-1.5093 0.0624,0.3672 0.29701,0.7458 0.18724,1.1017 -0.62199,2.0172 -4.47859,4.506 -6.00031,5.5706 -4.1471,2.9013 -5.67756,3.5548 -10.81558,6.4778 -3.34039,1.6926 -6.6745,3.3964 -10.07888,4.9579 -0.66621,0.3055 -2.858717,1.4177 -3.233897,1.1321 -0.26549,-0.2022 0.0184,-0.6672 0.0276,-1.0007 5.454877,-4.0836 12.343747,-7.078 18.712867,-9.5875 3.77966,-1.3777 6.29023,-0.9073 3.94687,3.3103 -2.16976,3.0528 -5.17367,5.3307 -8.03832,7.6833 -0.11363,0.066 -1.62792,1.5352 -1.32338,1.789 0.0873,0.073 0.16693,-0.1674 0.27558,-0.2009 0.31201,-0.096 0.64356,-0.1116 0.96266,-0.1806 0.52068,-0.1126 1.0374,-0.2428 1.5561,-0.3642 3.21767,-0.7681 6.21107,-2.2904 9.39008,-3.1423 2.05238,-0.5673 1.55648,0.8786 0.71624,1.9281 -0.51964,0.7009 -1.16978,1.2379 -1.86309,1.7529 0,0 -4.08018,1.6032 -4.08018,1.6032 l 0,0 c 0.72529,-0.4597 1.4006,-0.9275 1.89188,-1.6541 0.72672,-0.707 1.71743,-1.5462 -0.12506,-0.9672 -3.15012,0.942 -6.17217,2.3179 -9.37816,3.1047 -2.3469,0.5204 -5.07406,0.9798 -2.04583,-2.0471 2.83714,-2.3533 5.87429,-4.5512 8.09332,-7.5436 0.26543,-0.4185 1.6779,-2.1829 1.01654,-2.8843 -1.01285,-1.0742 -3.40098,0.2707 -4.34369,0.4438 -2.83282,1.1252 -5.60707,2.3304 -8.35508,3.652 -0.95053,0.4571 -1.84474,1.045 -2.83875,1.3978 -0.48393,0.1717 1.73981,-1.0886 1.28669,-0.8471 -0.50801,0.2708 -0.96798,0.6235 -1.45197,0.9352 -0.18158,0.061 -0.73592,0.1956 -0.54474,0.1833 1.00497,-0.065 2.28436,-0.7759 3.05141,-1.1269 2.5011,-1.1442 3.77933,-1.782 6.29727,-3.0493 1.23872,-0.6235 2.4718,-1.2581 3.7077,-1.8871 1.55642,-0.2881 0.39643,-0.046 3.67903,-2.3185 2.07108,-1.434 5.15337,-3.2546 6.16645,-5.6987 -2.50134,-0.2178 -4.87362,0.7437 -7.22596,1.5097 -5.25382,1.7109 -10.4344,3.6395 -15.67357,5.3935 -3.383007,1.202 -6.7187267,2.5387 -10.1254167,3.6719 -0.93753,0.3118 -1.8749,0.7217 -2.86162,0.7727 -0.31874004,0.017 -1.00753004,-0.3877 -0.75732004,-0.5859 1.96086004,-1.5528 6.94190004,-3.8559 9.45108004,-5.0737 10.7662367,-5.0371 21.6876567,-9.9432 31.6481067,-16.4791 1.8055,-1.3389 6.33257,-4.1188 7.05181,-6.6262 0.73078,-2.5477 -5.38329,-0.7116 -5.46815,-0.703 -11.72354,3.2306 -23.2678,7.183 -34.4454567,11.9805 0.2462,-0.2724 0.85557,-0.4692 0.7386,-0.8173 -0.10629,-0.3164 -1.23704,0.2736 -1.00038,0.038 0.3061,-0.3043 0.85003,-0.163 1.26036,-0.2968 1.0642997,-0.3472 2.1106597,-0.7476 3.1575267,-1.1443 3.33999,-1.2655 6.63606,-2.6453 9.99337,-3.866 9.09317,-3.7737 18.5061,-7.2261 26.8176,-12.5685 0.39114,-0.25 1.03789,-0.306 1.17343,-0.7499 0.0883,-0.2892 -0.58914,-0.2359 -0.88744,-0.1869 -1.04766,0.1721 -2.06234,0.5123 -3.07308,0.8373 -6.8312,2.1965 -13.38319,5.1676 -20.10524,7.6572 -17.9621267,6.968 -36.1104867,13.569 -53.458347,21.9972 -0.78818,0.245 -1.37413,0.4066 -2.15308,1.0363 -0.13919,0.1125 0.34991,0.1612 0.52369,0.1184 0.90928,-0.2239 1.78874,-0.5603 2.66043,-0.9025 0.98493,-0.3866 9.77095,-4.1931 9.97063,-4.2794 11.5909103,-5.476 23.3557203,-11.1198 33.132167,-19.557 0.1967,-0.1838 5.39334,-4.856 4.97404,-5.7528 -0.31963,-0.6837 -2.27814,-0.01 -3.47882,0.4387 -1.23954,0.4626 -2.43296,1.0405 -3.64945,1.5608 -8.7439267,4.1949 -17.3298467,8.7239 -26.225947,12.5992 -0.45834,0.1924 -2.01948,1.2904 -2.78742,0.5297 -0.15386,-0.1524 0.82793,-0.9187 1.48509,-1.3235 3.4458603,-2.1228 5.2746103,-3.1127 8.4604403,-4.8872 8.24673,-4.6418 16.4232467,-10.1041 23.7164467,-16.3913 2.57833,-2.34403 4.27119,-3.68445 6.42338,-6.28799 1.04206,-1.26059 1.77364,-2.46748 1.24696,-2.67784 -1.16423,-0.46502 -4.48075,0.94685 -4.95024,1.09993 -8.95978,4.03628 -17.9194567,8.1894 -26.3621067,13.2319 -0.8022,0.5757 -1.58093,1.1857 -2.40661,1.7273 -0.37212,0.2441 -0.85844,0.3171 -1.17974,0.625 -0.0951,0.091 0.23154,0.1777 0.36191,0.1588 2.97509,-0.4319 5.51716,-2.4439 8.23015,-3.539 2.33933,-0.5139 0.83908,-0.1049 5.12277,-2.8134 5.5196097,-3.48981 10.8930467,-7.32033 15.6696067,-11.78307 0.56659,-0.63065 1.14722,-1.24897 1.69978,-1.89195 0.24194,-0.28153 0.62827,-0.5128 0.68239,-0.88004 0.0266,-0.18064 -0.35959,-0.15941 -0.53609,-0.1126 -0.70019,0.18567 -1.36074,0.5 -2.02392,0.79144 -1.11015,0.48788 -2.19855,1.02387 -3.29333,1.54531 -1.49977,0.71433 -2.99349,1.4413 -4.49023,2.16195 -6.2464667,2.95478 -12.4235467,6.03313 -18.5735067,9.18476 -2.98558,1.53 -6.0498703,2.9239 -8.9207203,4.6596 -1.40872,0.8517 -2.77054,1.7787 -4.15581,2.6681 -0.94009,0.6982 -1.88358,1.392 -2.82029,2.0948 -0.47726,0.358 -0.94188,0.7329 -1.42153,1.0878 -0.0503,0.037 -0.22563,0.1073 -0.16639,0.087 0.43411,-0.1486 1.03797,-0.8541 1.29283,-0.4725 0.2478,0.371 -0.72354,0.5221 -1.08531,0.7831 1.16443,-0.7014 2.32887,-1.4029 3.4933,-2.1044 11.1520203,-6.9123 21.2100603,-15.36727 31.038467,-24.02814 2.5727,-2.4539 5.59387,-5.1551 7.88756,-7.94082 1.10603,-1.3433 2.30767,-3.1868 1.73733,-3.63443 -0.92926,-0.72934 -5.18902,0.67153 -5.22139,0.67933 -11.7105567,3.28678 -23.5361467,6.17832 -35.078417,10.04754 -1.50228,0.53476 -3.02069,1.02621 -4.50684,1.60429 -1.07386,0.41772 -2.05631,1.68172 -3.16872,1.38137 -2.00767,-0.54208 6.7648,-3.59677 5.4907,-3.08028 9.25084,-3.0179 18.6962803,-5.60819 27.4007803,-10.06406 4.3195197,-2.30371 12.6828667,-8.09425 15.2943567,-12.36048 0.29435,-0.48086 0.34093,-1.07481 0.51139,-1.61222 -0.32732,-0.275 -0.56375,-0.73634 -0.98196,-0.825 -2.12525,-0.45056 -5.42032,0.66937 -7.16576,1.16905 -6.3560667,1.81959 -12.5819667,4.08065 -18.9036967,6.01045 -3.88863,1.31746 -7.7894703,2.5987 -11.6780803,3.91623 -2.87402,0.97377 -5.85642,2.31826 -8.85154,2.94202 -0.46564,0.097 -0.94601,0.0999 -1.41902,0.14982 -3.72228,-0.75298 0.42552,-2.08584 2.71866,-3.4966 1.66622,-1.02507 3.58965,-1.55319 5.40044,-2.24065 4.87748,-1.55396 9.8854303,-2.95189 14.6293703,-4.88302 1.18714,-0.48326 2.30024996,-1.1391 3.49476996,-1.60381 0.30445,-0.11844 -0.53725,0.37181 -0.80587,0.55772 0.24334,-0.17026 2.61018004,-1.68724 2.66362004,-2.10478 0.18508,-1.44598 -6.40682,0.21147 -6.94118,0.28555 -4.69875,1.0373 -9.3927103,2.09067 -14.0851403,3.15486 -6.03048,0.14428 4.0873,-4.46017 5.89185,-5.14723 3.9666203,-1.40877 7.9579603,-2.74532 11.88336026,-4.26581 0,0 -3.46403996,2.6912 -3.46403996,2.6912 z"
       inkscape:connector-curvature="0" />
  </g>
</svg>
