<?xml version="1.0" encoding="UTF-8" standalone="no"?>
<!-- Created with Inkscape (http://www.inkscape.org/) -->

<svg
   xmlns:dc="http://purl.org/dc/elements/1.1/"
   xmlns:cc="http://creativecommons.org/ns#"
   xmlns:rdf="http://www.w3.org/1999/02/22-rdf-syntax-ns#"
   xmlns:svg="http://www.w3.org/2000/svg"
   xmlns="http://www.w3.org/2000/svg"
   xmlns:sodipodi="http://sodipodi.sourceforge.net/DTD/sodipodi-0.dtd"
   xmlns:inkscape="http://www.inkscape.org/namespaces/inkscape"
   width="26.746346mm"
   height="28.059692mm"
   viewBox="0 0 94.770516 99.424106"
   id="svg4237"
   version="1.1"
   inkscape:version="0.91 r13725"
   sodipodi:docname="Smear4.svg">
  <defs
     id="defs4239" />
  <sodipodi:namedview
     id="base"
     pagecolor="#ffffff"
     bordercolor="#666666"
     borderopacity="1.0"
     inkscape:pageopacity="0.0"
     inkscape:pageshadow="2"
     inkscape:zoom="0.35"
     inkscape:cx="-139.99452"
     inkscape:cy="526.58814"
     inkscape:document-units="px"
     inkscape:current-layer="layer1"
     showgrid="false"
     fit-margin-top="0"
     fit-margin-left="0"
     fit-margin-right="0"
     fit-margin-bottom="0"
     inkscape:window-width="1366"
     inkscape:window-height="705"
     inkscape:window-x="-8"
     inkscape:window-y="-8"
     inkscape:window-maximized="1" />
  <metadata
     id="metadata4242">
    <rdf:RDF>
      <cc:Work
         rdf:about="">
        <dc:format>image/svg+xml</dc:format>
        <dc:type
           rdf:resource="http://purl.org/dc/dcmitype/StillImage" />
        <dc:title></dc:title>
      </cc:Work>
    </rdf:RDF>
  </metadata>
  <g
     inkscape:label="Layer 1"
     inkscape:groupmode="layer"
     id="layer1"
     transform="translate(-27.85166,-959.52623)">
    <path
       style="opacity:1;fill:#a02c2c;fill-opacity:1;stroke:#a02c2c;stroke-width:3;stroke-linejoin:miter;stroke-miterlimit:3.9000001;stroke-dasharray:none;stroke-dashoffset:0;stroke-opacity:1"
       id="path4747"
       d="m 50.97063,967.86262 c -4.41581,2.86793 -9.08682,5.36671 -13.790764,7.73474 -7.56532,4.45854 12.296164,-7.58991 -5.02799,2.82276 -0.78179,0.46989 1.55197,-0.98418 2.40728,-1.30112 0.42702,-0.15823 -0.7159,0.61078 -0.90126,1.02675 2.65544,-0.83915 5.40848,-1.63483 8.054214,-2.62425 4.86333,-1.51919 9.69285,-3.10998 14.42251,-5.00447 5.10628,-1.80982 10.17683,-3.73384 15.14236,-5.90452 0.65066,-0.25179 1.28627,-0.54662 1.95198,-0.75539 1.02172,-0.32041 2.55137,-0.43714 1.81124,1.27537 -0.40878,0.94586 -2.11351,2.59486 -2.70316,3.21953 -5.47168,5.50362 -12.13038,9.32402 -18.85412,13.05301 -2.17805,0.97963 -4.19424,2.4958 -6.49099,3.22463 -0.29081,0.0923 -0.83596,0.34681 -0.91383,0.0518 -0.1217,-0.46102 0.23668,-0.97829 0.58265,-1.30639 0.78011,-0.7398 1.78854,-1.19357 2.68281,-1.79035 10.7521,-6.33258 21.56036,-12.59265 32.53641,-18.53177 1.19952,-0.2892 4.43142,-2.89368 6.02283,-1.73334 1.46101,1.06527 -0.93424,3.64819 -1.40387,4.3057 -5.59797,6.08705 -12.39998,10.90369 -19.08999,15.70112 -7.59483,5.23196 -15.22044,10.41899 -23.03502,15.31879 -0.78899,0.51939 -1.55786,1.07071 -2.36697,1.55816 -1.62476,0.97883 -3.170134,2.13562 -4.931754,2.83892 -0.26025,0.1039 -0.24981,-0.6107 -0.0839,-0.8365 0.73957,-1.00633 6.948854,-4.98314 7.980694,-5.70955 6.85445,-4.59347 13.80235,-9.32913 21.34219,-12.74725 0.53536,-0.16408 1.0533,-0.403 1.60608,-0.49223 0.77031,-0.12434 1.43171,-0.0129 1.21617,1.03183 -0.37186,1.80245 -3.60312,4.48465 -4.74538,5.61556 -6.77397,6.27686 -14.19773,11.7902 -21.41292,17.53854 -1.96206,0.028 -2.33068,2.4812 -3.843734,3.1615 -0.22542,0.1013 0.14165,-0.5131 0.34195,-0.6579 0.827384,-0.5981 1.760364,-1.0358 2.662444,-1.5138 4.08699,-2.1658 7.7148,-3.8507 11.94858,-5.8906 18.13277,-8.45648 36.03668,-17.38828 54.15578,-25.87388 2.69327,-0.82063 8.67265,-4.37407 11.85244,-3.9946 1.25138,0.14933 1.16093,1.40147 0.72655,2.19735 -0.42682,0.78201 -1.13519,1.37338 -1.70277,2.06007 -11.55502,10.2557 -26.17593,16.21346 -40.35662,21.88152 -12.27876,4.72234 -24.66338,9.17734 -37.14062,13.34724 -0.18931,-0.1121 -0.74441,-0.205 -0.56793,-0.3364 5.86174,-4.3657 12.78547,-6.7169 19.50935,-9.3643 6.42593,-2.53015 13.39767,-5.16752 19.83695,-7.62297 8.83417,-3.27261 17.56382,-6.87424 26.56355,-9.68627 1.76476,-0.55141 6.20248,-2.06337 8.54686,-1.65425 0.59781,0.10433 0.99236,0.69877 1.48854,1.04816 -0.051,0.6337 0.0808,1.30994 -0.1531,1.90109 -1.43793,3.63373 -5.7204,6.56421 -8.68916,8.6899 -4.26434,3.05335 -7.4216,4.81841 -11.97699,7.56014 -3.62813,2.0056 -7.21384,4.0899 -10.88437,6.0168 -2.87376,1.5086 -13.88868,6.7202 -16.8056,8.0999 -7.59458,3.5921 -15.19427,7.1641 -22.85025,10.6232 -4.65857,2.0348 -9.227244,4.2639 -13.843874,6.3898 -0.72105,0.3321 -1.41794,0.7262 -2.16887,0.9836 -0.0946,0.032 -0.34013,-0.093 -0.25892,-0.1514 1.79109,-1.2858 3.68561,-2.4211 5.52842,-3.6316 12.281254,-6.3604 24.775694,-12.2827 37.508934,-17.6793 1.32491,-0.4159 12.04115,-5.6201 13.25974,-3.0558 0.60593,1.2751 -1.04012,2.949 -1.52244,3.6571 -9.06006,8.0598 -20.34514,13.1382 -31.30709,18.0839 -3.80587,1.8711 -7.84129,3.2247 -11.69371,4.9867 -0.52672,0.2409 -2.018154,1.134 -1.53393,0.8162 5.45821,-3.5823 4.51189,-2.9608 9.40774,-5.3483 13.32127,-6.7504 26.97633,-12.8155 40.71358,-18.6626 5.21715,-1.9716 10.1811,-4.5775 15.41721,-6.5015 1.31141,-0.4819 3.35194,-1.3161 4.89834,-0.8766 0.39884,0.1133 0.62863,0.5408 0.94294,0.8112 0.006,0.4722 0.12514,0.9566 0.0177,1.4164 -0.95369,4.0812 -7.44421,8.9951 -10.45924,11.5893 -6.41412,5.2777 -13.44594,9.7431 -20.58517,13.9629 -0.67318,0.3689 -8.01019,5.6043 -8.94266,4.746 -0.72084,-0.6635 1.66431,-1.0341 2.49647,-1.5512 10.52427,-6.6477 21.2834,-12.9146 32.25537,-18.7929 1.28834,-0.6733 10.94492,-6.4749 12.17598,-3.4471 0.16813,0.4136 0.0264,0.8924 0.0396,1.3386 -1.51351,3.7335 -4.75241,6.1784 -7.90644,8.4844 -2.98227,2.1804 -5.15592,3.5652 -8.26712,5.6264 -9.28503,5.9242 -19.08727,10.9692 -29.12356,15.481 -0.53227,-0.2927 -5.16315,2.9303 -5.76575,2.6513 -0.24216,-0.1122 -0.22379,-0.6438 -0.008,-0.8005 2.39974,-1.7417 4.99625,-2.8902 7.62984,-4.1325 5.68376,-2.7442 11.44841,-5.4442 17.44427,-7.4432 4.98726,-0.8041 3.44393,3.2937 2.04968,6.0759 -3.69609,5.0737 -9.96444,7.4897 -15.66791,9.6612 -3.77102,1.4731 -7.67287,2.6771 -11.33664,4.4108 2.90197,-2.074 5.19435,-2.1664 8.59719,-2.8041 2.32768,-0.2441 7.04092,-2.7234 9.09156,-1.1785 0.24461,1.8241 -2.30682,3.1539 -3.64594,4.0965 -0.80437,0.9329 -0.67959,0.3976 -0.30411,0.2417 0.29478,-0.1225 0.62703,-0.1199 0.94117,-0.1765 1.22816,-0.2213 1.27495,-0.2214 2.54396,-0.4217 0.45471,-0.062 0.90941,-0.1232 1.36412,-0.1848 0,0 -3.48417,2.6056 -3.48417,2.6056 l 0,0 c -0.45324,0.064 -0.90648,0.129 -1.35972,0.1934 -0.6332,0.1044 -5.93602,1.5128 -3.76897,-0.6596 1.40034,-0.9386 3.05352,-1.9115 3.99891,-3.3243 -1.75079,-1.0442 -6.79348,1.2024 -8.81069,1.4031 -1.57746,0.3042 -3.41423,0.9138 -5.04196,0.8734 -0.59914,-0.015 -1.58754,-0.3587 -1.10363,-0.7262 1.36123,-1.0336 2.92811,-1.764 4.39216,-2.6461 3.68557,-1.624 7.51668,-2.8976 11.27799,-4.3304 0.8532,-0.3302 1.71319,-0.6434 2.55962,-0.9905 0.84098,-0.345 1.60753,-0.9215 2.5016,-1.0854 0.51815,-0.095 -1.76475,1.1513 -1.32012,0.8688 1.7707,-1.125 3.48388,-2.235 4.63126,-4.0496 1.30405,-2.4131 3.21266,-6.175 -1.49248,-5.2199 -5.97574,2.0263 -11.73501,4.6932 -17.39309,7.4698 -5.43855,2.6486 -0.93994,0.5597 -0.20661,-0.1952 0.1573,-0.162 -0.71432,-0.023 -0.63531,-0.2348 0.10646,-0.285 0.57195,-0.2093 0.84852,-0.336 0.67905,-0.311 1.34448,-0.6509 2.01672,-0.9764 0.91581,-0.4152 1.83161,-0.8304 2.74741,-1.2456 7.53525,-3.3853 15.03727,-6.9512 22.02231,-11.3813 3.27453,-2.1667 5.07537,-3.305 8.20525,-5.5728 3.08085,-2.2323 6.17395,-4.5584 7.88066,-8.0627 0.047,-0.3276 0.23964,-0.6669 0.14093,-0.9828 -0.2227,-0.7126 -1.70859,-0.5871 -2.00946,-0.5401 -3.49573,0.5458 -6.52511,2.7309 -9.62964,4.2256 -8.55554,4.587 -16.96184,9.4181 -25.113,14.6973 -3.62618,2.2781 -2.16239,1.5192 -7.44232,3.733 -0.14893,0.062 0.26299,-0.1875 0.39607,-0.2789 0.4495,-0.309 0.89378,-0.626 1.35164,-0.9224 1.40221,-0.908 2.85923,-1.7297 4.23888,-2.6735 7.16249,-4.2041 14.22981,-8.6389 20.66343,-13.9136 3.56123,-3.0594 9.63698,-7.3928 10.59734,-12.2557 -0.24199,-0.1968 -0.42102,-0.5249 -0.72597,-0.5903 -1.49325,-0.3203 -3.39962,0.443 -4.67084,0.9077 -5.17372,1.8914 -10.09394,4.4231 -15.24414,6.3733 -13.80613,5.8652 -27.51879,11.9767 -40.87447,18.8161 -1.29719,0.6275 -2.45082,1.8578 -3.89161,1.8824 -0.71497,0.012 0.60338,-1.3316 1.11146,-1.8348 0.73033,-0.7233 7.56786,-3.2357 8.38785,-3.586 1.55318,-0.6635 3.09435,-1.3548 4.64152,-2.0322 8.49247,-3.8322 17.26229,-7.4398 24.19929,-13.8593 0.46704,-0.6108 2.03681,-2.3373 1.7982,-2.9785 -0.77643,-2.0863 -11.75014,2.7473 -12.72749,3.139 -12.82977,5.4252 -25.41317,11.3999 -37.733064,17.9043 0.5036,-0.498 0.79837,-1.2545 1.43315,-1.5687 5.16113,-2.5544 10.554784,-4.6614 15.742404,-7.1602 14.74203,-6.6323 29.37898,-13.529 43.77995,-20.8727 4.54728,-2.73187 7.59708,-4.43331 11.85516,-7.46103 3.0822,-2.19161 6.7724,-4.8299 8.59582,-8.30243 0.23681,-0.45099 0.25786,-0.9856 0.38679,-1.4784 -0.41264,-0.29 -0.73946,-0.79312 -1.23792,-0.87 -2.32388,-0.35844 -6.45149,1.01169 -8.24817,1.56228 -8.94414,2.74089 -17.6093,6.30635 -26.37164,9.55651 -6.95677,2.66577 -13.06907,4.97797 -19.9675,7.73507 -2.65565,1.0614 -5.30754,2.133 -7.94096,3.2484 -1.88397,0.798 -3.63736,1.9473 -5.60977,2.4911 -0.4586,0.1264 0.6278,-1.661 0.99194,-1.0261 12.39408,-3.9988 24.64236,-8.45354 36.80104,-13.11459 11.72637,-4.71897 23.97478,-9.14394 33.42368,-17.86074 0.37959,-0.41316 2.28123,-2.17748 2.1762,-2.86159 -0.14395,-0.93767 -1.92207,-0.416 -2.84038,-0.17797 -3.42143,0.88686 -6.00652,2.15114 -9.33509,3.54647 -18.14499,8.43744 -36.05456,17.36288 -54.15966,25.88452 -7.47256,3.6505 -5.76983,2.7471 -12.182904,6.105 -0.95979,0.5025 -1.83421,1.2073 -2.86969,1.526 -0.29854,0.092 -0.94195,-0.079 -0.85689,-0.3793 0.4684,-1.6551 4.33416,-1.1491 4.00974,-3.2484 7.202524,-5.7209 14.605004,-11.21789 21.364464,-17.47032 1.92583,-1.89863 2.35513,-2.21452 3.94918,-4.12772 0.65865,-0.79051 1.07377,-1.39546 0.89943,-1.49249 -0.49157,-0.27359 -2.30269,0.49562 -2.39055,0.52467 -0.6592,0.30491 -1.25562,0.83553 -1.97759,0.91473 -0.50335,0.0552 1.71712,-1.07041 1.26782,-0.83688 -4.67946,2.43228 -9.03697,5.53648 -13.39967,8.47149 -7.37303,5.24002 0.16197,-0.0878 -6.18507,4.33027 -0.54233,0.3775 -1.01494,0.87298 -1.61515,1.14934 -0.18156,0.0836 -0.40048,-0.21652 -0.58381,-0.13688 -0.85794,0.37268 -2.383854,2.37239 -2.410064,1.4374 -0.0269,-0.9599 1.603954,-1.05632 2.405934,-1.58448 7.86283,-4.87895 15.50853,-10.08911 23.13376,-15.32879 6.63539,-4.75334 13.36636,-9.52557 18.9692,-15.50866 0.4363,-0.57225 0.91424,-1.11503 1.3089,-1.71675 2.71171,-4.13444 -4.64431,-0.27592 -5.22158,0.0473 -8.55432,4.6138 -17.03417,9.36804 -25.35801,14.38769 -0.8643,0.55312 -1.69335,1.16564 -2.59291,1.65934 -0.33604,0.18442 -0.78626,0.13047 -1.09128,0.36262 -0.20505,0.15606 0.52238,-0.0261 0.7646,-0.11398 2.24673,-0.81562 4.27322,-2.1771 6.41889,-3.20148 -0.29422,0.21624 -1.20334,0.82337 -0.88267,0.64872 3.7114,-2.02146 7.17766,-4.71813 10.36902,-7.47406 0.7213,-0.62289 1.40819,-1.28453 2.11228,-1.92679 0.44016,-0.45722 3.09955,-2.65252 3.05048,-3.61655 -0.0492,-0.96668 -3.76302,1.43923 -3.50883,0.87957 -4.97729,2.13764 -10.04302,4.06192 -15.14148,5.88805 -4.74367,1.88801 -9.59746,3.44293 -14.453754,5.01557 -1.52462,0.56112 -6.58162,2.62155 -8.15555,2.29032 -0.21079,-0.0444 -0.33175,-0.27485 -0.49763,-0.41227 0.34592,-2.16823 5.34541,-4.04326 5.83839,-4.343 0.70961,-0.43145 -2.86958,1.67339 -2.14858,1.26127 6.810534,-3.89287 3.2592,-1.98685 7.170884,-4.05435 1.33926,-0.67933 5.52756,-3.1021 5.69976,-3.02214 0.65188,0.30268 -1.27673,0.67739 -1.84064,1.12298 -0.76266,0.60265 2.82215,-1.67168 2.4872,-1.52229 0,0 4.08706,-1.62536 4.08706,-1.62536 z"
       inkscape:connector-curvature="0" />
  </g>
</svg>
