<?xml version="1.0" encoding="UTF-8" standalone="no"?>
<!-- Created with Inkscape (http://www.inkscape.org/) -->

<svg
   xmlns:dc="http://purl.org/dc/elements/1.1/"
   xmlns:cc="http://creativecommons.org/ns#"
   xmlns:rdf="http://www.w3.org/1999/02/22-rdf-syntax-ns#"
   xmlns:svg="http://www.w3.org/2000/svg"
   xmlns="http://www.w3.org/2000/svg"
   xmlns:sodipodi="http://sodipodi.sourceforge.net/DTD/sodipodi-0.dtd"
   xmlns:inkscape="http://www.inkscape.org/namespaces/inkscape"
   width="210mm"
   height="297mm"
   viewBox="0 0 744.09448819 1052.3622047"
   id="svg2"
   version="1.1"
   inkscape:version="0.91 r13725"
   sodipodi:docname="Rough.svg">
  <defs
     id="defs4" />
  <sodipodi:namedview
     id="base"
     pagecolor="#ffffff"
     bordercolor="#666666"
     borderopacity="1.0"
     inkscape:pageopacity="0.0"
     inkscape:pageshadow="2"
     inkscape:zoom="0.73709606"
     inkscape:cx="149.0909"
     inkscape:cy="708.14415"
     inkscape:document-units="px"
     inkscape:current-layer="layer1"
     showgrid="false"
     showguides="false"
     inkscape:window-width="715"
     inkscape:window-height="388"
     inkscape:window-x="118"
     inkscape:window-y="189"
     inkscape:window-maximized="0" />
  <metadata
     id="metadata7">
    <rdf:RDF>
      <cc:Work
         rdf:about="">
        <dc:format>image/svg+xml</dc:format>
        <dc:type
           rdf:resource="http://purl.org/dc/dcmitype/StillImage" />
        <dc:title />
      </cc:Work>
    </rdf:RDF>
  </metadata>
  <g
     inkscape:label="Layer 1"
     inkscape:groupmode="layer"
     id="layer1">
    <path
       style="fill:#677821"
       d="m 589.42491,562.83032 c -1.22272,-0.7378 -1.94252,-2.29723 -1.67387,-3.62639 0.10813,-0.53498 2.79884,-5.05275 5.97937,-10.03951 l 5.78278,-9.06684 0.002,-8.73525 0.002,-8.73525 -1.30132,0 c -0.97066,0 -1.43187,-0.18443 -1.81506,-0.72577 -0.67895,-0.95918 -0.64802,-1.42722 0.14629,-2.2132 0.62681,-0.62024 1.10004,-0.6531 9.40529,-0.6531 8.30526,0 8.77848,0.0329 9.40529,0.6531 0.36301,0.35921 0.66002,0.87353 0.66002,1.14293 0,0.88338 -1.2577,1.79604 -2.47508,1.79604 l -1.15503,0 0,8.75065 0,8.75066 5.93945,9.29132 c 6.192,9.68637 6.42254,10.19818 5.44031,12.07769 -1.02328,1.95807 -0.93764,1.94874 -17.88107,1.9474 -14.52789,-10e-4 -15.50468,-0.0376 -16.4607,-0.61448 z m 31.21226,-3.17614 c 0,-0.10988 -2.50525,-4.11422 -5.56723,-8.89853 -3.06198,-4.78431 -5.73506,-9.01973 -5.94018,-9.41203 -0.25082,-0.47968 -0.37296,-3.66129 -0.37296,-9.71491 l 0,-9.00163 -2.80508,0 -2.80509,0 0,9.00163 c 0,6.13313 -0.12052,9.22893 -0.3782,9.71491 -0.20801,0.3923 -2.88109,4.63124 -5.94018,9.41986 -3.05909,4.78863 -5.56198,8.79296 -5.56198,8.89853 0,0.10557 6.60845,0.19195 14.68545,0.19195 8.077,0 14.68545,-0.0899 14.68545,-0.19978 z m -26.27723,-1.58531 c -0.10654,-0.27473 1.00304,-2.32809 2.60279,-4.81663 3.27908,-5.10089 3.07123,-5.02446 7.20219,-2.64839 2.58752,1.48829 2.87004,1.57518 5.06861,1.55875 1.2806,-0.01 2.85659,-0.13441 3.50219,-0.27741 l 1.17383,-0.26002 1.87877,2.93257 c 1.03331,1.61292 1.87876,3.1705 1.87876,3.4613 0,0.47719 -1.1266,0.52871 -11.56071,0.52871 -9.8543,0 -11.58813,-0.0707 -11.74643,-0.47888 z m 9.12218,-40.43346 c -1.85566,-0.92906 -1.58003,-3.58125 0.44123,-4.24573 2.24688,-0.73865 3.88296,2.51069 2.00153,3.97512 -1.02553,0.79822 -1.32309,0.83119 -2.44276,0.27061 z m 2.89041,-6.94667 c -2.29092,-1.23021 -2.11383,-4.76227 0.30002,-5.98378 2.5619,-1.29644 5.62468,1.34418 4.7167,4.06657 -0.71998,2.1587 -2.96751,3.01762 -5.01672,1.91721 z"
       id="path4147"
       inkscape:connector-curvature="0" />
    <rect
       style="opacity:1;fill:#000000;fill-opacity:1;stroke:none;stroke-width:2;stroke-linejoin:miter;stroke-miterlimit:3.9000001;stroke-dasharray:none;stroke-dashoffset:0;stroke-opacity:1"
       id="rect4393"
       width="691.92438"
       height="148.15695"
       x="22.065922"
       y="563.75958" />
    <rect
       style="opacity:1;fill:#c8beb7;fill-opacity:1;stroke:none;stroke-width:2;stroke-linejoin:miter;stroke-miterlimit:3.9000001;stroke-dasharray:none;stroke-dashoffset:0;stroke-opacity:1"
       id="rect4405-6"
       width="54.723492"
       height="9.7720518"
       x="273.45984"
       y="524.67139" />
    <rect
       style="opacity:1;fill:#d35f5f;fill-opacity:1;stroke:none;stroke-width:2;stroke-linejoin:miter;stroke-miterlimit:3.9000001;stroke-dasharray:none;stroke-dashoffset:0;stroke-opacity:1"
       id="rect4407-9"
       width="52.769081"
       height="2.9316156"
       x="274.43707"
       y="531.51178" />
    <rect
       style="opacity:1;fill:#784421;fill-opacity:1;stroke:#000000;stroke-width:2.13374114;stroke-linejoin:miter;stroke-miterlimit:3.9000001;stroke-dasharray:none;stroke-dashoffset:0;stroke-opacity:1"
       id="rect4707"
       width="16.416809"
       height="68.622231"
       x="633.82324"
       y="494.0705" />
    <rect
       style="opacity:1;fill:#784421;fill-opacity:1;stroke:#000000;stroke-width:2.13374114;stroke-linejoin:miter;stroke-miterlimit:3.9000001;stroke-dasharray:none;stroke-dashoffset:0;stroke-opacity:1"
       id="rect4707-4"
       width="16.416809"
       height="68.622231"
       x="652.37378"
       y="494.0705" />
    <rect
       style="opacity:1;fill:#784421;fill-opacity:1;stroke:#000000;stroke-width:2.13374114;stroke-linejoin:miter;stroke-miterlimit:3.9000001;stroke-dasharray:none;stroke-dashoffset:0;stroke-opacity:1"
       id="rect4707-2"
       width="16.416809"
       height="68.622231"
       x="670.92432"
       y="494.0705" />
    <text
       xml:space="preserve"
       style="font-style:normal;font-weight:normal;font-size:37.15887451px;line-height:125%;font-family:'Franklin Gothic Demi';letter-spacing:0px;word-spacing:0px;fill:#000000;fill-opacity:1;stroke:none;stroke-width:1px;stroke-linecap:butt;stroke-linejoin:miter;stroke-opacity:1;-inkscape-font-specification:'Franklin Gothic Demi';font-stretch:normal;font-variant:normal;"
       x="20.907112"
       y="557.75372"
       id="text4395"
       sodipodi:linespacing="125%"><tspan
         sodipodi:role="line"
         id="tspan4397"
         x="20.907112"
         y="557.75372"
         style="font-style:normal;font-variant:normal;font-weight:normal;font-stretch:normal;font-family:'Franklin Gothic Demi';-inkscape-font-specification:'Franklin Gothic Demi';">LEVEL:</tspan></text>
    <rect
       style="opacity:1;fill:#abc837;fill-opacity:1;stroke:none;stroke-width:2;stroke-linejoin:miter;stroke-miterlimit:3.9000001;stroke-dasharray:none;stroke-dashoffset:0;stroke-opacity:1"
       id="rect4399"
       width="167.88782"
       height="134.1468"
       x="28.25116"
       y="571.09711" />
    <rect
       style="opacity:1;fill:#677821;fill-opacity:1;stroke:none;stroke-width:2;stroke-linejoin:miter;stroke-miterlimit:3.9000001;stroke-dasharray:none;stroke-dashoffset:0;stroke-opacity:1"
       id="rect4401"
       width="63.045498"
       height="23.642061"
       x="128.76782"
       y="677.52911" />
    <rect
       style="opacity:1;fill:#c8beb7;fill-opacity:1;stroke:none;stroke-width:2;stroke-linejoin:miter;stroke-miterlimit:3.9000001;stroke-dasharray:none;stroke-dashoffset:0;stroke-opacity:1"
       id="rect4405"
       width="54.723492"
       height="9.7720518"
       x="273.45984"
       y="553.98755" />
    <rect
       style="opacity:1;fill:#89a02c;fill-opacity:1;stroke:none;stroke-width:2;stroke-linejoin:miter;stroke-miterlimit:3.9000001;stroke-dasharray:none;stroke-dashoffset:0;stroke-opacity:1"
       id="rect4407"
       width="52.769081"
       height="2.9316156"
       x="274.43704"
       y="560.828" />
    <rect
       style="opacity:1;fill:#c8beb7;fill-opacity:1;stroke:none;stroke-width:2;stroke-linejoin:miter;stroke-miterlimit:3.9000001;stroke-dasharray:none;stroke-dashoffset:0;stroke-opacity:1"
       id="rect4405-1"
       width="54.723492"
       height="9.7720518"
       x="273.45984"
       y="534.44342" />
    <rect
       style="opacity:1;fill:#89a02c;fill-opacity:1;stroke:none;stroke-width:2;stroke-linejoin:miter;stroke-miterlimit:3.9000001;stroke-dasharray:none;stroke-dashoffset:0;stroke-opacity:1"
       id="rect4407-5"
       width="52.769081"
       height="2.9316156"
       x="274.43707"
       y="541.28387" />
    <rect
       style="opacity:1;fill:#c8beb7;fill-opacity:1;stroke:none;stroke-width:2;stroke-linejoin:miter;stroke-miterlimit:3.9000001;stroke-dasharray:none;stroke-dashoffset:0;stroke-opacity:1"
       id="rect4405-8"
       width="54.723492"
       height="9.7720518"
       x="273.45987"
       y="514.89935" />
    <rect
       style="opacity:1;fill:#008033;fill-opacity:1;stroke:none;stroke-width:2;stroke-linejoin:miter;stroke-miterlimit:3.9000001;stroke-dasharray:none;stroke-dashoffset:0;stroke-opacity:1"
       id="rect4407-7"
       width="52.769081"
       height="2.9316156"
       x="274.43707"
       y="521.73975" />
    <rect
       style="opacity:1;fill:#c8beb7;fill-opacity:1;stroke:none;stroke-width:2;stroke-linejoin:miter;stroke-miterlimit:3.9000001;stroke-dasharray:none;stroke-dashoffset:0;stroke-opacity:1"
       id="rect4405-0"
       width="54.723492"
       height="9.7720518"
       x="273.45987"
       y="544.21545" />
    <rect
       style="opacity:1;fill:#ff7f2a;fill-opacity:1;stroke:none;stroke-width:2;stroke-linejoin:miter;stroke-miterlimit:3.9000001;stroke-dasharray:none;stroke-dashoffset:0;stroke-opacity:1"
       id="rect4407-4"
       width="52.769081"
       height="2.9316156"
       x="274.43707"
       y="551.05591" />
    <rect
       style="opacity:1;fill:#abc837;fill-opacity:1;stroke:none;stroke-width:2;stroke-linejoin:miter;stroke-miterlimit:3.9000001;stroke-dasharray:none;stroke-dashoffset:0;stroke-opacity:1"
       id="rect4399-3"
       width="221.57469"
       height="110.32962"
       x="475.07809"
       y="581.09711" />
    <path
       style="opacity:1;fill:#e6e6e6;fill-opacity:1;stroke:none;stroke-width:2;stroke-linejoin:miter;stroke-miterlimit:3.9000001;stroke-dasharray:none;stroke-dashoffset:0;stroke-opacity:1"
       id="path4505"
       sodipodi:type="arc"
       sodipodi:cx="391.6105"
       sodipodi:cy="711.9165"
       sodipodi:rx="74.078461"
       sodipodi:ry="130.81941"
       sodipodi:start="3.1415927"
       sodipodi:end="0"
       d="m 317.53204,711.9165 a 74.078461,130.81941 0 0 1 74.07847,-130.81941 74.078461,130.81941 0 0 1 74.07845,130.81941 l -74.07846,0 z" />
    <path
       style="fill:#000080"
       d="m 210.46594,666.45297 c 1.76524,-1.99112 3.36913,-3.62022 3.56422,-3.62022 0.19508,0 0.93506,0.51856 1.64439,1.15235 l 1.28969,1.15233 -1.06224,1.34715 c -0.58424,0.74093 -2.10657,2.47303 -3.38295,3.8491 l -2.32071,2.50196 -1.47096,-1.38122 -1.47095,-1.38124 3.20951,-3.62021 z m 9.28994,-14.00159 c 3.59711,-4.06009 6.69744,-7.43289 6.8896,-7.49512 0.37605,-0.12176 6.34817,5.04539 6.34817,5.49251 0,0.14795 -2.95073,3.61901 -6.55718,7.71347 l -6.55718,7.44445 -1.44117,-1.18374 c -0.79265,-0.65105 -2.29196,-1.95005 -3.33181,-2.88665 l -1.89063,-1.70293 6.5402,-7.38199 z m 27.60252,-34.98982 c 11.72113,-13.18659 21.47238,-24.02606 21.66945,-24.08773 0.27388,-0.0857 10.35625,8.54311 10.35625,8.8632 0,0.19832 -43.08316,48.59819 -43.2597,48.59819 -0.34517,0 -10.13137,-8.84593 -10.10322,-9.13249 0.0144,-0.14606 9.6161,-11.05459 21.33722,-24.24117 z m 21.42703,-28.95797 c 0.76565,-0.90826 1.30618,-1.23809 1.66676,-1.01702 0.70763,0.43383 24.22701,21.26906 24.49066,21.69566 0.11266,0.18229 -0.28982,0.92397 -0.8944,1.64817 l -1.09925,1.31671 -12.3814,-10.90444 c -6.80977,-5.99744 -12.50156,-11.01478 -12.64844,-11.14966 -0.14688,-0.13488 0.24285,-0.85012 0.86607,-1.58942 z m 14.4326,-3.75469 c 5.97607,-6.7013 5.96045,-6.69166 7.7112,-4.75709 0.72886,0.80537 0.66463,0.89897 -4.96502,7.23556 -3.13689,3.53079 -5.82203,6.41962 -5.96697,6.41962 -0.29267,0 -2.41758,-2.13984 -2.40449,-2.42138 0.004,-0.0979 2.53593,-3.01246 5.62528,-6.47671 z m 4.81855,-10.19797 c 0.2781,-0.27495 0.66835,-0.4999 0.86724,-0.4999 0.19888,0 1.93508,1.41239 3.85822,3.13865 3.13593,2.81488 3.44231,3.21294 2.97001,3.85885 -0.48766,0.66691 -0.72398,0.54565 -3.19408,-1.63896 -1.46711,-1.29754 -3.19387,-2.80907 -3.83725,-3.35895 -0.94075,-0.80405 -1.07078,-1.09767 -0.66414,-1.49969 z"
       id="path4520"
       inkscape:connector-curvature="0" />
    <path
       style="fill:none;fill-rule:evenodd;stroke:#e6e6e6;stroke-width:10.82780361;stroke-linecap:butt;stroke-linejoin:miter;stroke-miterlimit:4;stroke-dasharray:none;stroke-opacity:1"
       d="m 265.82977,607.0249 c 43.92382,108.10766 76.86667,29.15263 76.86667,29.15263"
       id="path4522"
       inkscape:connector-curvature="0" />
    <path
       sodipodi:type="star"
       style="opacity:1;fill:#004455;fill-opacity:1;stroke:#000000;stroke-width:5.5457201;stroke-linejoin:miter;stroke-miterlimit:4;stroke-dasharray:none;stroke-dashoffset:0;stroke-opacity:1"
       id="path4539"
       sodipodi:sides="3"
       sodipodi:cx="488.6026"
       sodipodi:cy="625.22894"
       sodipodi:r1="81.974304"
       sodipodi:r2="40.987148"
       sodipodi:arg1="1.5515679"
       sodipodi:arg2="2.5987655"
       inkscape:flatsided="true"
       inkscape:rounded="0"
       inkscape:randomized="0"
       d="M 490.17874,707.18809 416.83582,585.61434 558.79324,582.88439 Z"
       inkscape:transform-center-x="0.19307969"
       inkscape:transform-center-y="10.514705"
       transform="matrix(0.24500352,0,0,0.53084997,270.70958,273.46023)" />
    <ellipse
       style="opacity:1;fill:#ff9955;fill-opacity:1;stroke:none;stroke-width:2;stroke-linejoin:miter;stroke-miterlimit:3.9000001;stroke-dasharray:none;stroke-dashoffset:0;stroke-opacity:1"
       id="path4507"
       cx="392.39856"
       cy="541.69366"
       rx="43.343781"
       ry="48.86026" />
    <ellipse
       style="opacity:1;fill:#d38d5f;fill-opacity:1;stroke:none;stroke-width:12.4289999;stroke-linejoin:miter;stroke-miterlimit:4;stroke-dasharray:none;stroke-dashoffset:0;stroke-opacity:1"
       id="path4545"
       cx="268.55246"
       cy="606.31531"
       rx="12.609099"
       ry="15.761374" />
    <path
       style="fill:none;fill-rule:evenodd;stroke:#000000;stroke-width:4.8690505;stroke-linecap:butt;stroke-linejoin:miter;stroke-miterlimit:4;stroke-dasharray:none;stroke-opacity:1"
       d="m 132.21856,482.21141 c 52.12081,71.42163 67.91498,35.67374 91.60626,-26.82019 23.69127,-62.49393 53.70021,-69.79841 78.9709,-49.50817"
       id="path4609"
       inkscape:connector-curvature="0"
       sodipodi:nodetypes="csc" />
    <rect
       style="opacity:1;fill:#1a1a1a;fill-opacity:1;stroke:#000000;stroke-width:15;stroke-linejoin:miter;stroke-miterlimit:3.9000001;stroke-dasharray:none;stroke-dashoffset:0;stroke-opacity:1"
       id="rect4488"
       width="234.84448"
       height="203.32173"
       x="22.065924"
       y="279.6969" />
    <circle
       style="opacity:1;fill:#c8beb7;fill-opacity:1;stroke:none;stroke-width:12.4289999;stroke-linejoin:miter;stroke-miterlimit:4;stroke-dasharray:none;stroke-dashoffset:0;stroke-opacity:1"
       id="path4547"
       cx="137.14832"
       cy="381.35776"
       r="63.06987" />
    <path
       sodipodi:type="star"
       style="opacity:1;fill:#333333;fill-opacity:1;stroke:none;stroke-width:10;stroke-linejoin:miter;stroke-miterlimit:4;stroke-dasharray:none;stroke-dashoffset:0;stroke-opacity:1"
       id="path4539-5"
       sodipodi:sides="3"
       sodipodi:cx="488.6026"
       sodipodi:cy="625.22894"
       sodipodi:r1="81.974304"
       sodipodi:r2="40.987148"
       sodipodi:arg1="1.5515679"
       sodipodi:arg2="2.5987655"
       inkscape:flatsided="true"
       inkscape:rounded="0"
       inkscape:randomized="0"
       d="M 490.17874,707.18809 416.83582,585.61434 558.79324,582.88439 Z"
       inkscape:transform-center-x="0.31182739"
       inkscape:transform-center-y="-10.797739"
       transform="matrix(-0.31151858,-0.00798358,0.01360012,-0.53067573,444.88844,811.70877)" />
    <rect
       style="opacity:1;fill:#1a1a1a;fill-opacity:1;stroke:none;stroke-width:12.4289999;stroke-linejoin:miter;stroke-miterlimit:4;stroke-dasharray:none;stroke-dashoffset:0;stroke-opacity:1"
       id="rect4588"
       width="59.893223"
       height="66.197769"
       x="271.09564"
       y="401.41745" />
    <path
       style="fill:#000000"
       d="m 540.88968,493.93158 c -12.80948,-0.48962 -26.83743,-4.21134 -37.20207,-9.87001 -5.05219,-2.75829 -11.76063,-7.79355 -15.02855,-11.28021 l -2.20999,-2.35791 -4.85875,1.17747 c -7.57826,1.83653 -15.18646,2.58762 -23.65154,2.3349 -3.98802,-0.11906 -8.68664,-0.43908 -10.44137,-0.71116 -14.83209,-2.29982 -26.69341,-7.04915 -36.87441,-14.76471 -5.75774,-4.36344 -8.83746,-7.60545 -12.47032,-13.12751 -6.84331,-10.40201 -8.4339,-22.08531 -4.54673,-33.39694 0.66183,-1.9259 1.11583,-3.54106 1.00891,-3.58924 -0.1069,-0.0481 -2.15217,-1.13837 -4.54498,-2.42265 -11.68744,-6.27293 -20.44903,-15.15241 -24.82631,-25.16035 -7.56085,-17.2867 -1.33849,-36.52367 15.98708,-49.42541 11.62893,-8.65966 25.86696,-13.66674 42.62311,-14.98928 l 6.23028,-0.49174 1.24091,-2.74605 c 7.96198,-17.61946 28.251,-30.40592 53.77172,-33.88775 6.91585,-0.94355 21.6925,-0.61409 27.94935,0.62315 2.39281,0.47315 5.00315,0.98173 5.80077,1.13017 4.08732,0.76067 15.73425,5.38247 20.39134,8.09182 l 5.01935,2.92009 2.52165,-1.23786 c 6.93338,-3.40353 16.84657,-6.41095 25.55296,-7.75216 6.58389,-1.01426 19.863,-1.01426 26.44691,0 14.2659,2.19766 25.15086,6.47991 35.23045,13.86003 6.30836,4.61888 10.26361,8.64491 13.67564,13.92037 3.41269,5.27648 6.30277,13.2749 6.31505,17.47719 l 0.005,1.4998 5.65284,1.15691 c 10.76174,2.20252 21.26544,6.7194 29.44176,12.66077 8.31625,6.04305 14.85588,14.25272 18.07424,22.68995 1.50716,3.95113 1.60239,4.70644 1.5898,12.60869 -0.0125,7.85047 -0.11866,8.68346 -1.60657,12.6087 -2.54027,6.70142 -8.20875,14.55477 -13.53021,18.74528 l -1.38812,1.09311 1.24217,2.2692 c 3.91574,7.15332 4.90328,11.13129 4.84116,19.50109 -0.0464,6.25397 -0.2378,7.64728 -1.53468,11.17345 -3.81493,10.37262 -9.73788,17.74054 -19.81992,24.6552 -13.20704,9.05792 -29.05871,13.63492 -47.08194,13.59441 -11.41832,-0.0257 -20.77699,-1.54937 -29.74911,-4.84352 l -3.0708,-1.12745 -4.44964,3.08001 c -14.47613,10.02012 -32.62233,15.04033 -51.72609,14.31015 z m 15.08197,-12.94468 c 11.85552,-2.02534 22.1704,-6.77076 29.58389,-13.61023 2.07377,-1.9132 4.47538,-3.74368 5.33689,-4.06773 2.95007,-1.10962 6.25207,-0.75341 10.5905,1.14244 10.36881,4.53109 16.96244,5.93066 28.1584,5.97696 9.38331,0.0389 14.80264,-0.84048 22.91301,-3.71764 9.53146,-3.38132 17.14268,-8.44848 22.20051,-14.77997 5.00487,-6.26518 7.0957,-12.03377 7.08925,-19.55918 -0.006,-6.66726 -1.46072,-10.84674 -6.2612,-17.98511 -2.61696,-3.89145 -1.52955,-7.02738 3.64345,-10.50724 4.66606,-3.13884 9.87958,-10.10588 12.03569,-16.0838 1.7354,-4.8115 1.70115,-13.32558 -0.073,-18.16982 -4.31914,-11.79252 -16.13043,-21.5477 -31.45852,-25.98224 -4.34007,-1.25561 -10.37499,-2.36724 -12.97686,-2.39033 -2.76175,-0.0245 -6.37104,-1.43389 -7.66853,-2.99446 -0.94984,-1.14243 -1.24193,-2.4293 -1.51374,-6.66919 -0.66229,-10.33075 -4.58147,-17.58925 -13.53845,-25.07383 -5.85927,-4.89608 -15.89407,-9.37344 -24.94037,-11.12795 -5.65789,-1.09734 -16.73671,-1.51063 -21.82013,-0.81401 -9.187,1.25897 -18.32803,4.34388 -25.64104,8.65334 -7.34183,4.32645 -9.76804,4.19929 -16.79454,-0.88027 -14.65797,-10.59643 -34.1924,-14.36038 -52.98538,-10.20936 -12.52056,2.76555 -23.76142,9.27206 -30.50004,17.65423 -2.21514,2.7554 -4.87469,8.23757 -5.60652,11.55682 -1.29339,5.86606 -2.81535,6.55363 -15.35967,6.9389 -10.53257,0.32348 -15.05768,1.06552 -22.62297,3.7098 -13.95209,4.87664 -24.07618,14.11723 -27.93999,25.50174 -1.47121,4.33482 -1.34392,12.80071 0.25962,17.26764 3.83517,10.68356 12.67856,18.92997 26.23019,24.45951 7.97168,3.25272 8.59455,4.61996 5.2744,11.57772 -3.56315,7.46702 -4.29553,12.91807 -2.65268,19.74384 3.12257,12.97375 15.40372,23.90046 32.38701,28.81516 6.9715,2.01744 12.68887,2.65292 21.54869,2.3951 8.5335,-0.24831 12.44783,-0.94276 20.54296,-3.64457 4.65825,-1.55471 5.38603,-1.68317 7.54503,-1.3317 3.09736,0.50424 5.14293,1.49733 6.33706,3.07657 4.99792,6.60974 9.1908,10.48585 14.89643,13.77095 7.12026,4.09962 16.1705,6.99921 24.92827,7.98673 4.51118,0.50868 14.05802,0.19025 18.85247,-0.62882 z"
       id="path4622"
       inkscape:connector-curvature="0" />
    <ellipse
       style="opacity:1;fill:#ffffff;fill-opacity:1;stroke:#000000;stroke-width:5;stroke-linejoin:miter;stroke-miterlimit:3.9000001;stroke-dasharray:none;stroke-dashoffset:0;stroke-opacity:1"
       id="path4626"
       cx="394.03436"
       cy="463.6749"
       rx="6.3045497"
       ry="7.0926185" />
    <circle
       style="opacity:1;fill:#ffffff;fill-opacity:1;stroke:#000000;stroke-width:5;stroke-linejoin:miter;stroke-miterlimit:3.9000001;stroke-dasharray:none;stroke-dashoffset:0;stroke-opacity:1"
       id="path4628"
       cx="408.2196"
       cy="483.37662"
       r="4.7284122" />
    <rect
       style="opacity:1;fill:#677821;fill-opacity:1;stroke:none;stroke-width:2;stroke-linejoin:miter;stroke-miterlimit:3.9000001;stroke-dasharray:none;stroke-dashoffset:0;stroke-opacity:1"
       id="rect4401-3"
       width="156.32471"
       height="30.22076"
       x="551.5351"
       y="445.1427" />
    <text
       xml:space="preserve"
       style="font-style:normal;font-weight:normal;font-size:26.33590508px;line-height:125%;font-family:sans-serif;letter-spacing:0px;word-spacing:0px;fill:#000000;fill-opacity:1;stroke:none;stroke-width:1px;stroke-linecap:butt;stroke-linejoin:miter;stroke-opacity:1"
       x="575.23889"
       y="454.40726"
       id="text4632"
       sodipodi:linespacing="125%"
       transform="scale(0.96896218,1.032032)"><tspan
         style="font-style:normal;font-variant:normal;font-weight:normal;font-stretch:normal;font-family:'Franklin Gothic Demi';-inkscape-font-specification:'Franklin Gothic Demi'"
         sodipodi:role="line"
         id="tspan4634"
         x="575.23889"
         y="454.40726">TRANSFORM</tspan></text>
    <text
       xml:space="preserve"
       style="font-style:normal;font-weight:normal;font-size:19.29286003px;line-height:125%;font-family:sans-serif;letter-spacing:0px;word-spacing:0px;fill:#000000;fill-opacity:1;stroke:none;stroke-width:1px;stroke-linecap:butt;stroke-linejoin:miter;stroke-opacity:1"
       x="32.202713"
       y="570.96582"
       id="text4667-3"
       sodipodi:linespacing="125%"
       transform="scale(0.96967535,1.031273)"><tspan
         sodipodi:role="line"
         id="tspan4669-8"
         x="32.202713"
         y="570.96582"
         style="font-style:normal;font-variant:normal;font-weight:normal;font-stretch:normal;font-family:'Franklin Gothic Demi';-inkscape-font-specification:'Franklin Gothic Demi'">INFO:</tspan></text>
    <text
       xml:space="preserve"
       style="font-style:normal;font-weight:normal;font-size:19.29286003px;line-height:125%;font-family:sans-serif;letter-spacing:0px;word-spacing:0px;fill:#000000;fill-opacity:1;stroke:none;stroke-width:1px;stroke-linecap:butt;stroke-linejoin:miter;stroke-opacity:1"
       x="495.14496"
       y="581.18738"
       id="text4667-3-9"
       sodipodi:linespacing="125%"
       transform="scale(0.96967535,1.031273)"><tspan
         sodipodi:role="line"
         id="tspan4669-8-6"
         x="495.14496"
         y="581.18738"
         style="-inkscape-font-specification:'Franklin Gothic Demi';font-family:'Franklin Gothic Demi';font-weight:normal;font-style:normal;font-stretch:normal;font-variant:normal">TOOLS:</tspan></text>
    <path
       sodipodi:type="star"
       style="opacity:1;fill:#000000;fill-opacity:1;stroke:none;stroke-width:10;stroke-linejoin:miter;stroke-miterlimit:4;stroke-dasharray:none;stroke-dashoffset:0;stroke-opacity:1"
       id="path4539-5-1"
       sodipodi:sides="3"
       sodipodi:cx="488.6026"
       sodipodi:cy="625.22894"
       sodipodi:r1="81.974304"
       sodipodi:r2="40.987148"
       sodipodi:arg1="1.5515679"
       sodipodi:arg2="2.5987655"
       inkscape:flatsided="true"
       inkscape:rounded="0"
       inkscape:randomized="0"
       d="M 490.17874,707.18809 416.83582,585.61434 558.79324,582.88439 Z"
       inkscape:transform-center-x="-2.4159142"
       inkscape:transform-center-y="-0.10178059"
       transform="matrix(0.00178627,-0.10167862,0.11873492,0.00443903,435.52776,666.52371)" />
    <rect
       style="opacity:1;fill:#000000;fill-opacity:1;stroke:none;stroke-width:1.6124897;stroke-linejoin:miter;stroke-miterlimit:3.9000001;stroke-dasharray:none;stroke-dashoffset:0;stroke-opacity:1"
       id="rect4789"
       width="3.8971336"
       height="11.208532"
       x="493.33203"
       y="617.67651" />
    <rect
       style="opacity:1;fill:#000000;fill-opacity:1;stroke:none;stroke-width:1.6124897;stroke-linejoin:miter;stroke-miterlimit:3.9000001;stroke-dasharray:none;stroke-dashoffset:0;stroke-opacity:1"
       id="rect4789-8"
       width="3.7322686"
       height="17.005674"
       x="617.67651"
       y="-510.33771"
       transform="matrix(0,1,-1,0,0,0)" />
    <rect
       style="opacity:1;fill:none;fill-opacity:1;stroke:#000000;stroke-width:1.11880529;stroke-linejoin:miter;stroke-miterlimit:3.9000001;stroke-dasharray:none;stroke-dashoffset:0;stroke-opacity:1"
       id="rect4831"
       width="38.75037"
       height="16.481916"
       x="482.02881"
       y="637.44446" />
    <path
       sodipodi:type="star"
       style="opacity:1;fill:#000000;fill-opacity:1;stroke:none;stroke-width:10;stroke-linejoin:miter;stroke-miterlimit:4;stroke-dasharray:none;stroke-dashoffset:0;stroke-opacity:1"
       id="path4539-5-1-7"
       sodipodi:sides="3"
       sodipodi:cx="488.6026"
       sodipodi:cy="625.22894"
       sodipodi:r1="81.974304"
       sodipodi:r2="40.987148"
       sodipodi:arg1="1.5515679"
       sodipodi:arg2="2.5987655"
       inkscape:flatsided="true"
       inkscape:rounded="0"
       inkscape:randomized="0"
       d="M 490.17874,707.18809 416.83582,585.61434 558.79324,582.88439 Z"
       inkscape:transform-center-x="-2.4159142"
       inkscape:transform-center-y="-0.10178059"
       transform="matrix(0.00178627,-0.10167862,0.11873492,0.00443903,484.6251,666.52372)" />
    <rect
       style="opacity:1;fill:#000000;fill-opacity:1;stroke:none;stroke-width:1.6124897;stroke-linejoin:miter;stroke-miterlimit:3.9000001;stroke-dasharray:none;stroke-dashoffset:0;stroke-opacity:1"
       id="rect4789-5"
       width="3.8971336"
       height="11.208532"
       x="542.42932"
       y="617.67651" />
    <rect
       style="opacity:1;fill:#000000;fill-opacity:1;stroke:none;stroke-width:1.6124897;stroke-linejoin:miter;stroke-miterlimit:3.9000001;stroke-dasharray:none;stroke-dashoffset:0;stroke-opacity:1"
       id="rect4789-8-8"
       width="3.7322686"
       height="17.005674"
       x="617.67651"
       y="-559.435"
       transform="matrix(0,1,-1,0,0,0)" />
    <rect
       style="opacity:1;fill:none;fill-opacity:1;stroke:#000000;stroke-width:1.11880529;stroke-linejoin:miter;stroke-miterlimit:3.9000001;stroke-dasharray:none;stroke-dashoffset:0;stroke-opacity:1"
       id="rect4831-4"
       width="38.75037"
       height="16.481916"
       x="531.1261"
       y="637.44446" />
    <path
       sodipodi:type="star"
       style="opacity:1;fill:#000000;fill-opacity:1;stroke:none;stroke-width:10;stroke-linejoin:miter;stroke-miterlimit:4;stroke-dasharray:none;stroke-dashoffset:0;stroke-opacity:1"
       id="path4539-5-1-4"
       sodipodi:sides="3"
       sodipodi:cx="488.6026"
       sodipodi:cy="625.22894"
       sodipodi:r1="81.974304"
       sodipodi:r2="40.987148"
       sodipodi:arg1="1.5515679"
       sodipodi:arg2="2.5987655"
       inkscape:flatsided="true"
       inkscape:rounded="0"
       inkscape:randomized="0"
       d="M 490.17874,707.18809 416.83582,585.61434 558.79324,582.88439 Z"
       inkscape:transform-center-x="-2.4159142"
       inkscape:transform-center-y="-0.10178059"
       transform="matrix(0.00178627,-0.10167862,0.11873492,0.00443903,535.40242,666.52372)" />
    <rect
       style="opacity:1;fill:#000000;fill-opacity:1;stroke:none;stroke-width:1.6124897;stroke-linejoin:miter;stroke-miterlimit:3.9000001;stroke-dasharray:none;stroke-dashoffset:0;stroke-opacity:1"
       id="rect4789-2"
       width="3.8971336"
       height="11.208532"
       x="593.20667"
       y="617.67651" />
    <rect
       style="opacity:1;fill:#000000;fill-opacity:1;stroke:none;stroke-width:1.6124897;stroke-linejoin:miter;stroke-miterlimit:3.9000001;stroke-dasharray:none;stroke-dashoffset:0;stroke-opacity:1"
       id="rect4789-8-5"
       width="3.7322686"
       height="17.005674"
       x="617.67651"
       y="-610.21234"
       transform="matrix(0,1,-1,0,0,0)" />
    <rect
       style="opacity:1;fill:none;fill-opacity:1;stroke:#000000;stroke-width:1.11880529;stroke-linejoin:miter;stroke-miterlimit:3.9000001;stroke-dasharray:none;stroke-dashoffset:0;stroke-opacity:1"
       id="rect4831-0"
       width="38.75037"
       height="16.481916"
       x="581.90344"
       y="637.44446" />
    <rect
       style="opacity:1;fill:none;fill-opacity:1;stroke:#000000;stroke-width:1.11880529;stroke-linejoin:miter;stroke-miterlimit:3.9000001;stroke-dasharray:none;stroke-dashoffset:0;stroke-opacity:1"
       id="rect4831-0-9"
       width="38.75037"
       height="16.481916"
       x="482.02881"
       y="666.21368" />
    <rect
       style="opacity:1;fill:none;fill-opacity:1;stroke:#000000;stroke-width:1.11880529;stroke-linejoin:miter;stroke-miterlimit:3.9000001;stroke-dasharray:none;stroke-dashoffset:0;stroke-opacity:1"
       id="rect4831-0-94"
       width="38.75037"
       height="16.481916"
       x="531.1261"
       y="666.21368" />
    <rect
       style="opacity:1;fill:none;fill-opacity:1;stroke:#000000;stroke-width:1.11880529;stroke-linejoin:miter;stroke-miterlimit:3.9000001;stroke-dasharray:none;stroke-dashoffset:0;stroke-opacity:1"
       id="rect4831-0-7"
       width="38.75037"
       height="16.481916"
       x="581.90344"
       y="666.21368" />
    <text
       xml:space="preserve"
       style="font-style:normal;font-weight:normal;font-size:29.86018181px;line-height:125%;font-family:sans-serif;letter-spacing:0px;word-spacing:0px;fill:#000000;fill-opacity:1;stroke:none;stroke-width:1px;stroke-linecap:butt;stroke-linejoin:miter;stroke-opacity:1"
       x="129.80397"
       y="694.67664"
       id="text4940"
       sodipodi:linespacing="125%"
       transform="scale(0.99343656,1.0066068)"><tspan
         sodipodi:role="line"
         id="tspan4942"
         x="129.80397"
         y="694.67664"
         style="font-style:normal;font-variant:normal;font-weight:normal;font-stretch:normal;font-family:'Franklin Gothic Demi';-inkscape-font-specification:'Franklin Gothic Demi'">HINT</tspan></text>
    <text
       xml:space="preserve"
       style="font-style:normal;font-weight:normal;font-size:12.5px;line-height:125%;font-family:sans-serif;letter-spacing:0px;word-spacing:0px;fill:#000000;fill-opacity:1;stroke:none;stroke-width:1px;stroke-linecap:butt;stroke-linejoin:miter;stroke-opacity:1"
       x="628.66815"
       y="678.99872"
       id="text4971"
       sodipodi:linespacing="125%"><tspan
         sodipodi:role="line"
         id="tspan4973"
         x="628.66815"
         y="678.99872"
         style="font-style:normal;font-variant:normal;font-weight:normal;font-stretch:normal;font-family:'Franklin Gothic Demi';-inkscape-font-specification:'Franklin Gothic Demi'">MARKERS</tspan></text>
    <text
       xml:space="preserve"
       style="font-style:normal;font-weight:normal;font-size:12.5px;line-height:125%;font-family:sans-serif;letter-spacing:0px;word-spacing:0px;fill:#000000;fill-opacity:1;stroke:none;stroke-width:1px;stroke-linecap:butt;stroke-linejoin:miter;stroke-opacity:1"
       x="642.15997"
       y="650.22339"
       id="text4975"
       sodipodi:linespacing="125%"><tspan
         sodipodi:role="line"
         x="642.15997"
         y="650.22339"
         id="tspan4979"
         style="font-style:normal;font-variant:normal;font-weight:normal;font-stretch:normal;font-family:'Franklin Gothic Demi';-inkscape-font-specification:'Franklin Gothic Demi'">GENE</tspan></text>
    <text
       xml:space="preserve"
       style="font-style:normal;font-weight:normal;font-size:12.5px;line-height:125%;font-family:sans-serif;letter-spacing:0px;word-spacing:0px;fill:#000000;fill-opacity:1;stroke:none;stroke-width:1px;stroke-linecap:butt;stroke-linejoin:miter;stroke-opacity:1"
       x="625.39056"
       y="625.13348"
       id="text4983"
       sodipodi:linespacing="125%"><tspan
         sodipodi:role="line"
         id="tspan4985"
         x="625.39056"
         y="625.13348"
         style="font-style:normal;font-variant:normal;font-weight:normal;font-stretch:normal;font-family:'Franklin Gothic Demi';-inkscape-font-specification:'Franklin Gothic Demi'">PROMOTER</tspan></text>
    <rect
       style="opacity:1;fill:#808000;fill-opacity:1;stroke:none;stroke-width:3;stroke-linejoin:miter;stroke-miterlimit:3.9000001;stroke-dasharray:none;stroke-dashoffset:0;stroke-opacity:1"
       id="rect4991"
       width="79.482063"
       height="23.800356"
       x="631.04584"
       y="266.68866" />
    <text
       xml:space="preserve"
       style="font-style:normal;font-weight:normal;font-size:25.6464119px;line-height:125%;font-family:sans-serif;letter-spacing:0px;word-spacing:0px;fill:#000000;fill-opacity:1;stroke:none;stroke-width:1px;stroke-linecap:butt;stroke-linejoin:miter;stroke-opacity:1"
       x="636.88055"
       y="285.99686"
       id="text4993"
       sodipodi:linespacing="125%"
       transform="scale(0.9962791,1.0037348)"><tspan
         sodipodi:role="line"
         id="tspan4995"
         x="636.88055"
         y="285.99686"
         style="font-style:normal;font-variant:normal;font-weight:normal;font-stretch:normal;font-family:'Franklin Gothic Demi';-inkscape-font-specification:'Franklin Gothic Demi'">RESET</tspan></text>
    <circle
       style="opacity:1;fill:#00ff00;fill-opacity:1;stroke:none;stroke-width:3;stroke-linejoin:miter;stroke-miterlimit:3.9000001;stroke-dasharray:none;stroke-dashoffset:0;stroke-opacity:1"
       id="path4999"
       cx="229.15105"
       cy="482.203"
       r="3.2463138" />
    <circle
       style="opacity:1;fill:#ff0000;fill-opacity:1;stroke:none;stroke-width:3;stroke-linejoin:miter;stroke-miterlimit:3.9000001;stroke-dasharray:none;stroke-dashoffset:0;stroke-opacity:1"
       id="path4999-7"
       cx="240.74876"
       cy="482.203"
       r="3.2463138" />
    <circle
       style="opacity:1;fill:#0000ff;fill-opacity:1;stroke:none;stroke-width:3;stroke-linejoin:miter;stroke-miterlimit:3.9000001;stroke-dasharray:none;stroke-dashoffset:0;stroke-opacity:1"
       id="path4999-7-0"
       cx="252.34648"
       cy="482.203"
       r="3.2463138" />
    <circle
       style="opacity:1;fill:#ff0000;fill-opacity:1;stroke:none;stroke-width:3;stroke-linejoin:miter;stroke-miterlimit:3.9000001;stroke-dasharray:none;stroke-dashoffset:0;stroke-opacity:1"
       id="path4999-7-2-7"
       cx="322.64151"
       cy="459.90936"
       r="3.2463138" />
    <circle
       style="opacity:1;fill:none;fill-opacity:1;stroke:#008000;stroke-width:7.2139678;stroke-linejoin:miter;stroke-miterlimit:3.9000001;stroke-dasharray:none;stroke-dashoffset:0;stroke-opacity:1"
       id="path4630"
       cx="653.0509"
       cy="64.08905"
       r="46.393017"
       transform="matrix(0.8660254,0.50000001,-0.50000001,0.8660254,0,0)" />
    <rect
       style="opacity:1;fill:none;fill-opacity:1;stroke:#000000;stroke-width:1.11880529;stroke-linejoin:miter;stroke-miterlimit:3.9000001;stroke-dasharray:none;stroke-dashoffset:0;stroke-opacity:1"
       id="rect4831-8"
       width="38.75037"
       height="16.481916"
       x="633.67572"
       y="101.04773"
       transform="matrix(0.8660254,0.50000001,-0.50000001,0.8660254,0,0)" />
    <rect
       style="opacity:1;fill:none;fill-opacity:1;stroke:#000000;stroke-width:1.11880529;stroke-linejoin:miter;stroke-miterlimit:3.9000001;stroke-dasharray:none;stroke-dashoffset:0;stroke-opacity:1"
       id="rect4831-83"
       width="38.75037"
       height="16.481916"
       x="-401.40341"
       y="570.46362"
       transform="matrix(0,-1,1,0,0,0)" />
    <rect
       style="opacity:1;fill:none;fill-opacity:1;stroke:#000000;stroke-width:1.11880529;stroke-linejoin:miter;stroke-miterlimit:3.9000001;stroke-dasharray:none;stroke-dashoffset:0;stroke-opacity:1"
       id="rect4831-83-5"
       width="38.75037"
       height="16.481916"
       x="-290.39789"
       y="-560.65375"
       transform="matrix(-0.8660254,0.5,-0.5,-0.8660254,0,0)" />
    <circle
       style="opacity:1;fill:#000000;fill-opacity:1;stroke:none;stroke-width:3;stroke-linejoin:miter;stroke-miterlimit:3.9000001;stroke-dasharray:none;stroke-dashoffset:0;stroke-opacity:1"
       id="path5135"
       cx="376.17407"
       cy="531.5882"
       r="5" />
    <circle
       style="opacity:1;fill:#000000;fill-opacity:1;stroke:none;stroke-width:3;stroke-linejoin:miter;stroke-miterlimit:3.9000001;stroke-dasharray:none;stroke-dashoffset:0;stroke-opacity:1"
       id="path5135-2"
       cx="409.14169"
       cy="534.97253"
       r="5" />
    <path
       style="fill:none;fill-rule:evenodd;stroke:#000000;stroke-width:5;stroke-linecap:butt;stroke-linejoin:miter;stroke-miterlimit:4;stroke-dasharray:none;stroke-opacity:1"
       d="m 409.55311,559.74476 c -35.59595,22.95334 -38.80804,-5.42625 -38.80804,-5.42625"
       id="path5152"
       inkscape:connector-curvature="0" />
    <rect
       style="opacity:1;fill:#e6e6e6;fill-opacity:1;stroke:#000000;stroke-width:1.12628663;stroke-linejoin:miter;stroke-miterlimit:4;stroke-dasharray:none;stroke-dashoffset:0;stroke-opacity:1"
       id="rect5154"
       width="31.077244"
       height="39.217297"
       x="407.06573"
       y="638.6394" />
    <rect
       style="opacity:1;fill:#800000;fill-opacity:1;stroke:none;stroke-width:1;stroke-linejoin:miter;stroke-miterlimit:4;stroke-dasharray:none;stroke-dashoffset:0;stroke-opacity:1"
       id="rect5156"
       width="5.0518775"
       height="10.557132"
       x="410.98547"
       y="627.5191" />
    <rect
       style="opacity:1;fill:#000000;fill-opacity:1;stroke:none;stroke-width:1;stroke-linejoin:miter;stroke-miterlimit:4;stroke-dasharray:none;stroke-dashoffset:0;stroke-opacity:1"
       id="rect5156-7"
       width="5.0518775"
       height="10.557132"
       x="420.07843"
       y="627.5191" />
    <rect
       style="opacity:1;fill:#000080;fill-opacity:1;stroke:none;stroke-width:1;stroke-linejoin:miter;stroke-miterlimit:4;stroke-dasharray:none;stroke-dashoffset:0;stroke-opacity:1"
       id="rect5156-75"
       width="5.0518775"
       height="10.557132"
       x="429.17139"
       y="627.5191" />
    <rect
       style="opacity:1;fill:#000000;fill-opacity:1;stroke:none;stroke-width:1;stroke-linejoin:miter;stroke-miterlimit:4;stroke-dasharray:none;stroke-dashoffset:0;stroke-opacity:1"
       id="rect5184"
       width="2.7743013"
       height="44.911716"
       x="385.2124"
       y="666.85315" />
    <rect
       style="opacity:1;fill:#000000;fill-opacity:1;stroke:none;stroke-width:1;stroke-linejoin:miter;stroke-miterlimit:4;stroke-dasharray:none;stroke-dashoffset:0;stroke-opacity:1"
       id="rect5184-9"
       width="2"
       height="40"
       x="533.67383"
       y="515.51062"
       transform="matrix(0.97100695,0.23905124,-0.23905124,0.97100695,0,0)" />
    <circle
       style="opacity:0.97000002;fill:#ffffff;fill-opacity:1;stroke:#000000;stroke-width:0.97959286;stroke-linejoin:miter;stroke-miterlimit:4;stroke-dasharray:none;stroke-dashoffset:0;stroke-opacity:1"
       id="path5201"
       cx="394.79645"
       cy="672.27716"
       r="3.0102036" />
    <circle
       style="opacity:0.97000002;fill:#ffffff;fill-opacity:1;stroke:#000000;stroke-width:0.97959286;stroke-linejoin:miter;stroke-miterlimit:4;stroke-dasharray:none;stroke-dashoffset:0;stroke-opacity:1"
       id="path5201-8"
       cx="394.79645"
       cy="700.05518"
       r="3.0102036" />
    <path
       style="fill:#782121"
       d="m 539.41213,562.83032 c -1.22272,-0.7378 -1.94252,-2.29723 -1.67387,-3.62639 0.10813,-0.53498 2.79884,-5.05275 5.97937,-10.03951 l 5.78278,-9.06684 0.002,-8.73525 0.002,-8.73525 -1.30132,0 c -0.97066,0 -1.43187,-0.18443 -1.81506,-0.72577 -0.67895,-0.95918 -0.64802,-1.42722 0.14629,-2.2132 0.62681,-0.62024 1.10004,-0.6531 9.40529,-0.6531 8.30526,0 8.77848,0.0329 9.40529,0.6531 0.36301,0.35921 0.66002,0.87353 0.66002,1.14293 0,0.88338 -1.2577,1.79604 -2.47508,1.79604 l -1.15503,0 0,8.75065 0,8.75066 5.93945,9.29132 c 6.192,9.68637 6.42254,10.19818 5.44031,12.07769 -1.02328,1.95807 -0.93764,1.94874 -17.88107,1.9474 -14.52789,-10e-4 -15.50468,-0.0376 -16.4607,-0.61448 z m 31.21226,-3.17614 c 0,-0.10988 -2.50525,-4.11422 -5.56723,-8.89853 -3.06198,-4.78431 -5.73506,-9.01973 -5.94018,-9.41203 -0.25082,-0.47968 -0.37296,-3.66129 -0.37296,-9.71491 l 0,-9.00163 -2.80508,0 -2.80509,0 0,9.00163 c 0,6.13313 -0.12052,9.22893 -0.3782,9.71491 -0.20801,0.3923 -2.88109,4.63124 -5.94018,9.41986 -3.05909,4.78863 -5.56198,8.79296 -5.56198,8.89853 0,0.10557 6.60845,0.19195 14.68545,0.19195 8.077,0 14.68545,-0.0899 14.68545,-0.19978 z m -26.27723,-1.58531 c -0.10654,-0.27473 1.00304,-2.32809 2.60279,-4.81663 3.27908,-5.10089 3.07123,-5.02446 7.20219,-2.64839 2.58752,1.48829 2.87004,1.57518 5.06861,1.55875 1.2806,-0.01 2.85659,-0.13441 3.50219,-0.27741 l 1.17383,-0.26002 1.87877,2.93257 c 1.03331,1.61292 1.87876,3.1705 1.87876,3.4613 0,0.47719 -1.1266,0.52871 -11.56071,0.52871 -9.8543,0 -11.58813,-0.0707 -11.74643,-0.47888 z m 9.12218,-40.43346 c -1.85566,-0.92906 -1.58003,-3.58125 0.44123,-4.24573 2.24688,-0.73865 3.88296,2.51069 2.00153,3.97512 -1.02553,0.79822 -1.32309,0.83119 -2.44276,0.27061 z m 2.89041,-6.94667 c -2.29092,-1.23021 -2.11383,-4.76227 0.30002,-5.98378 2.5619,-1.29644 5.62468,1.34418 4.7167,4.06657 -0.71998,2.1587 -2.96751,3.01762 -5.01672,1.91721 z"
       id="path4147-7"
       inkscape:connector-curvature="0" />
    <path
       style="fill:#668000"
       d="m 489.39928,562.83032 c -1.22272,-0.7378 -1.94252,-2.29723 -1.67387,-3.62639 0.10813,-0.53498 2.79884,-5.05275 5.97937,-10.03951 l 5.78278,-9.06684 0.002,-8.73525 0.002,-8.73525 -1.30132,0 c -0.97066,0 -1.43187,-0.18443 -1.81506,-0.72577 -0.67895,-0.95918 -0.64802,-1.42722 0.14629,-2.2132 0.62681,-0.62024 1.10004,-0.6531 9.40529,-0.6531 8.30526,0 8.77848,0.0329 9.40529,0.6531 0.36301,0.35921 0.66002,0.87353 0.66002,1.14293 0,0.88338 -1.2577,1.79604 -2.47508,1.79604 l -1.15503,0 0,8.75065 0,8.75066 5.93945,9.29132 c 6.192,9.68637 6.42254,10.19818 5.44031,12.07769 -1.02328,1.95807 -0.93764,1.94874 -17.88107,1.9474 -14.52789,-10e-4 -15.50468,-0.0376 -16.4607,-0.61448 z m 31.21226,-3.17614 c 0,-0.10988 -2.50525,-4.11422 -5.56723,-8.89853 -3.06198,-4.78431 -5.73506,-9.01973 -5.94018,-9.41203 -0.25082,-0.47968 -0.37296,-3.66129 -0.37296,-9.71491 l 0,-9.00163 -2.80508,0 -2.80509,0 0,9.00163 c 0,6.13313 -0.12052,9.22893 -0.3782,9.71491 -0.20801,0.3923 -2.88109,4.63124 -5.94018,9.41986 -3.05909,4.78863 -5.56198,8.79296 -5.56198,8.89853 0,0.10557 6.60845,0.19195 14.68545,0.19195 8.077,0 14.68545,-0.0899 14.68545,-0.19978 z m -26.27723,-1.58531 c -0.10654,-0.27473 1.00304,-2.32809 2.60279,-4.81663 3.27908,-5.10089 3.07123,-5.02446 7.20219,-2.64839 2.58752,1.48829 2.87004,1.57518 5.06861,1.55875 1.2806,-0.01 2.85659,-0.13441 3.50219,-0.27741 l 1.17383,-0.26002 1.87877,2.93257 c 1.03331,1.61292 1.87876,3.1705 1.87876,3.4613 0,0.47719 -1.1266,0.52871 -11.56071,0.52871 -9.8543,0 -11.58813,-0.0707 -11.74643,-0.47888 z m 9.12218,-40.43346 c -1.85566,-0.92906 -1.58003,-3.58125 0.44123,-4.24573 2.24688,-0.73865 3.88296,2.51069 2.00153,3.97512 -1.02553,0.79822 -1.32309,0.83119 -2.44276,0.27061 z m 2.89041,-6.94667 c -2.29092,-1.23021 -2.11383,-4.76227 0.30002,-5.98378 2.5619,-1.29644 5.62468,1.34418 4.7167,4.06657 -0.71998,2.1587 -2.96751,3.01762 -5.01672,1.91721 z"
       id="path4147-2"
       inkscape:connector-curvature="0" />
  </g>
</svg>
